<svg width="398" height="459" viewBox="0 0 398 459" fill="none" xmlns="http://www.w3.org/2000/svg">
<path d="M0 0H398V459H0V0Z" fill="#646E53"/>
<path d="M199.07 200.13C199.385 204.263 199.47 208.411 199.326 212.554C199.162 216.701 199.444 220.816 199.326 224.97C198.669 233.226 199.621 241.437 199.759 249.765C199.654 266.336 199.831 282.881 198.906 299.426C198.906 282.881 198.623 266.31 198.61 249.765C198.571 243.589 198.052 237.355 198.112 231.153C198.217 227.011 198.663 222.91 198.551 218.749C198.551 212.54 199.286 206.352 199.037 200.13H199.07Z" fill="white"/>
<path d="M207.779 200.13C210.365 202.188 212.561 204.693 214.263 207.526C215.418 209.397 216.324 211.399 217.485 213.262C218.05 214.201 218.693 215.08 219.218 216.071C220.268 218.079 220.156 220.409 220.307 222.588C221.049 233.391 223.129 244.738 219.815 255.402C217.092 264.032 214.053 272.63 209.971 280.715C206.46 285.965 203.789 291.701 200.908 297.299C203.73 291.393 206.539 285.388 210.043 279.816C213.694 271.849 216.79 263.639 219.31 255.245C221.935 246.825 221.115 237.873 220.399 229.217C220.202 227.031 219.992 224.846 219.887 222.654C219.782 220.462 219.887 218.23 218.916 216.275C218.424 215.323 217.787 214.417 217.229 213.466C216.081 211.595 215.215 209.567 214.105 207.671C212.465 204.816 210.33 202.276 207.799 200.169L207.779 200.13Z" fill="white"/>
<path d="M190.17 200.13C187.586 202.19 185.39 204.695 183.686 207.526C182.531 209.397 181.625 211.399 180.464 213.262C179.899 214.201 179.256 215.08 178.731 216.071C177.681 218.079 177.793 220.409 177.642 222.588C176.9 233.391 174.82 244.738 178.134 255.402C180.857 264.032 183.896 272.63 187.978 280.715C191.489 285.965 194.16 291.701 197.041 297.299C194.219 291.393 191.41 285.388 187.906 279.816C184.258 271.848 181.162 263.638 178.639 255.245C176.014 246.825 176.834 237.873 177.55 229.217C177.747 227.031 177.957 224.846 178.062 222.654C178.167 220.462 178.062 218.23 179.033 216.275C179.525 215.323 180.168 214.417 180.72 213.466C181.868 211.595 182.734 209.567 183.844 207.671C185.484 204.816 187.619 202.276 190.15 200.169L190.17 200.13Z" fill="white"/>
<path d="M229.83 177.167C229.551 177.168 229.274 177.114 229.016 177.007C228.758 176.901 228.524 176.745 228.326 176.548C228.129 176.351 227.972 176.117 227.865 175.86C227.758 175.602 227.703 175.326 227.703 175.047C227.703 172.871 226.839 170.785 225.301 169.246C223.762 167.708 221.675 166.844 219.5 166.844C217.324 166.844 215.237 167.708 213.699 169.246C212.16 170.785 211.296 172.871 211.296 175.047C211.296 175.611 211.072 176.152 210.673 176.551C210.275 176.949 209.734 177.173 209.17 177.173C208.606 177.173 208.065 176.949 207.666 176.551C207.267 176.152 207.043 175.611 207.043 175.047C206.933 173.345 207.173 171.638 207.748 170.033C208.323 168.427 209.222 166.956 210.388 165.712C211.554 164.467 212.963 163.475 214.528 162.797C216.093 162.119 217.781 161.769 219.487 161.769C221.192 161.769 222.88 162.119 224.445 162.797C226.01 163.475 227.419 164.467 228.585 165.712C229.751 166.956 230.65 168.427 231.225 170.033C231.801 171.638 232.04 173.345 231.93 175.047C231.93 175.606 231.709 176.142 231.316 176.539C230.923 176.936 230.388 177.162 229.83 177.167Z" fill="white"/>
<path d="M240.147 187.484C236.845 187.484 233.679 186.174 231.341 183.843C229.004 181.512 227.686 178.348 227.677 175.047C227.677 174.483 227.901 173.942 228.3 173.543C228.699 173.145 229.24 172.921 229.804 172.921C230.368 172.921 230.908 173.145 231.307 173.543C231.706 173.942 231.93 174.483 231.93 175.047C231.93 177.223 232.794 179.309 234.333 180.848C235.871 182.386 237.958 183.251 240.134 183.251C242.309 183.251 244.396 182.386 245.934 180.848C247.473 179.309 248.337 177.223 248.337 175.047C248.321 174.758 248.364 174.469 248.464 174.198C248.563 173.926 248.717 173.678 248.915 173.468C249.114 173.258 249.354 173.09 249.619 172.976C249.885 172.862 250.171 172.803 250.46 172.803C250.749 172.803 251.036 172.862 251.301 172.976C251.567 173.09 251.806 173.258 252.005 173.468C252.204 173.678 252.358 173.926 252.457 174.198C252.556 174.469 252.599 174.758 252.583 175.047C252.575 178.343 251.262 181.501 248.931 183.831C246.601 186.162 243.442 187.475 240.147 187.484Z" fill="white"/>
<path d="M177.708 191.907C174.401 191.907 171.23 190.593 168.891 188.255C166.553 185.916 165.239 182.745 165.239 179.438C165.223 179.149 165.266 178.86 165.365 178.588C165.465 178.317 165.618 178.068 165.817 177.858C166.016 177.648 166.255 177.481 166.521 177.366C166.787 177.252 167.073 177.193 167.362 177.193C167.651 177.193 167.937 177.252 168.203 177.366C168.468 177.481 168.708 177.648 168.907 177.858C169.105 178.068 169.259 178.317 169.359 178.588C169.458 178.86 169.501 179.149 169.485 179.438C169.487 181.223 170.072 182.959 171.151 184.381C172.23 185.803 173.743 186.835 175.462 187.318C177.181 187.802 179.01 187.711 180.672 187.06C182.335 186.408 183.739 185.232 184.671 183.71C184.814 183.464 185.004 183.25 185.23 183.079C185.457 182.908 185.715 182.784 185.99 182.714C186.266 182.645 186.552 182.631 186.833 182.674C187.113 182.717 187.382 182.815 187.624 182.964C187.866 183.112 188.076 183.308 188.241 183.539C188.406 183.769 188.523 184.031 188.586 184.308C188.648 184.585 188.654 184.871 188.604 185.151C188.554 185.43 188.449 185.697 188.294 185.935C187.192 187.757 185.639 189.263 183.785 190.31C181.93 191.356 179.837 191.906 177.708 191.907Z" fill="white"/>
<path d="M167.385 181.59C166.822 181.588 166.283 181.364 165.885 180.965C165.488 180.567 165.265 180.027 165.265 179.464C165.265 177.288 164.401 175.202 162.862 173.663C161.324 172.125 159.237 171.26 157.061 171.26C154.886 171.26 152.799 172.125 151.261 173.663C149.722 175.202 148.858 177.288 148.858 179.464C148.858 180.028 148.634 180.569 148.235 180.967C147.836 181.366 147.295 181.59 146.731 181.59C146.167 181.59 145.627 181.366 145.228 180.967C144.829 180.569 144.605 180.028 144.605 179.464C144.494 177.762 144.734 176.055 145.309 174.449C145.885 172.844 146.783 171.373 147.95 170.129C149.116 168.884 150.525 167.892 152.09 167.214C153.655 166.536 155.343 166.186 157.048 166.186C158.754 166.186 160.441 166.536 162.006 167.214C163.571 167.892 164.981 168.884 166.147 170.129C167.313 171.373 168.212 172.844 168.787 174.449C169.362 176.055 169.602 177.762 169.491 179.464C169.491 180.024 169.27 180.562 168.876 180.961C168.481 181.359 167.945 181.585 167.385 181.59Z" fill="white"/>
<path d="M161.215 272.84C158.3 272.838 155.505 271.679 153.444 269.618C151.383 267.557 150.224 264.762 150.223 261.847C150.223 261.283 150.447 260.742 150.845 260.344C151.244 259.945 151.785 259.721 152.349 259.721C152.913 259.721 153.454 259.945 153.852 260.344C154.251 260.742 154.475 261.283 154.475 261.847C154.475 263.635 155.185 265.349 156.449 266.613C157.713 267.877 159.428 268.587 161.215 268.587C163.003 268.587 164.717 267.877 165.981 266.613C167.245 265.349 167.955 263.635 167.955 261.847C167.985 261.304 168.222 260.794 168.617 260.421C169.012 260.047 169.535 259.839 170.078 259.839C170.622 259.839 171.145 260.047 171.54 260.421C171.934 260.794 172.171 261.304 172.202 261.847C172.2 264.761 171.042 267.555 168.982 269.616C166.922 271.677 164.129 272.836 161.215 272.84Z" fill="white"/>
<path d="M152.349 263.973C151.785 263.973 151.244 263.749 150.846 263.351C150.447 262.952 150.223 262.411 150.223 261.847C150.223 260.06 149.513 258.345 148.249 257.081C146.985 255.817 145.271 255.107 143.483 255.107C141.695 255.107 139.981 255.817 138.717 257.081C137.453 258.345 136.743 260.06 136.743 261.847C136.743 262.411 136.519 262.952 136.12 263.351C135.721 263.749 135.181 263.973 134.617 263.973C134.053 263.973 133.512 263.749 133.113 263.351C132.714 262.952 132.49 262.411 132.49 261.847C132.49 258.932 133.648 256.136 135.71 254.074C137.771 252.012 140.568 250.854 143.483 250.854C146.398 250.854 149.194 252.012 151.256 254.074C153.318 256.136 154.475 258.932 154.475 261.847C154.475 262.411 154.252 262.952 153.853 263.351C153.454 263.749 152.913 263.973 152.349 263.973Z" fill="white"/>
<path d="M253.541 274.94C252.096 274.941 250.664 274.657 249.328 274.104C247.992 273.551 246.778 272.741 245.755 271.719C244.732 270.697 243.921 269.483 243.367 268.147C242.814 266.812 242.529 265.38 242.529 263.934C242.529 263.37 242.753 262.829 243.152 262.43C243.55 262.032 244.091 261.808 244.655 261.808C245.219 261.808 245.76 262.032 246.159 262.43C246.558 262.829 246.782 263.37 246.782 263.934C246.782 265.722 247.492 267.436 248.756 268.7C250.02 269.964 251.734 270.674 253.522 270.674C255.309 270.674 257.024 269.964 258.288 268.7C259.552 267.436 260.262 265.722 260.262 263.934C260.262 263.37 260.486 262.829 260.885 262.43C261.283 262.032 261.824 261.808 262.388 261.808C262.952 261.808 263.493 262.032 263.892 262.43C264.29 262.829 264.514 263.37 264.514 263.934C264.516 266.848 263.362 269.643 261.304 271.707C259.247 273.77 256.455 274.933 253.541 274.94Z" fill="white"/>
<path d="M244.656 266.074C244.377 266.074 244.1 266.02 243.842 265.914C243.584 265.808 243.35 265.652 243.152 265.455C242.955 265.258 242.798 265.024 242.691 264.766C242.584 264.509 242.529 264.233 242.529 263.954C242.529 262.166 241.819 260.452 240.555 259.188C239.291 257.924 237.577 257.214 235.789 257.214C234.002 257.214 232.287 257.924 231.023 259.188C229.759 260.452 229.049 262.166 229.049 263.954C229.019 264.496 228.782 265.007 228.387 265.38C227.992 265.754 227.47 265.962 226.926 265.962C226.383 265.962 225.86 265.754 225.465 265.38C225.07 265.007 224.833 264.496 224.803 263.954C224.767 262.488 225.025 261.03 225.561 259.665C226.097 258.301 226.901 257.057 227.925 256.008C228.949 254.958 230.173 254.124 231.524 253.555C232.875 252.986 234.326 252.692 235.792 252.692C237.259 252.692 238.71 252.986 240.061 253.555C241.412 254.124 242.636 254.958 243.66 256.008C244.684 257.057 245.488 258.301 246.024 259.665C246.56 261.03 246.818 262.488 246.782 263.954C246.782 264.233 246.727 264.509 246.62 264.766C246.513 265.024 246.356 265.258 246.159 265.455C245.961 265.652 245.727 265.808 245.469 265.914C245.211 266.02 244.934 266.074 244.656 266.074Z" fill="white"/>
<path d="M255.89 294.825C255.326 294.825 254.785 294.601 254.387 294.203C253.988 293.804 253.764 293.263 253.764 292.699C253.709 290.947 252.975 289.285 251.716 288.065C250.458 286.845 248.773 286.163 247.021 286.163C245.268 286.163 243.584 286.845 242.325 288.065C241.066 289.285 240.332 290.947 240.277 292.699C240.293 292.988 240.25 293.277 240.151 293.548C240.051 293.82 239.898 294.068 239.699 294.278C239.5 294.488 239.261 294.656 238.995 294.77C238.729 294.885 238.443 294.944 238.154 294.944C237.865 294.944 237.579 294.885 237.313 294.77C237.048 294.656 236.808 294.488 236.609 294.278C236.411 294.068 236.257 293.82 236.157 293.548C236.058 293.277 236.015 292.988 236.031 292.699C235.995 291.233 236.253 289.775 236.789 288.411C237.325 287.046 238.129 285.802 239.153 284.753C240.177 283.704 241.401 282.87 242.752 282.3C244.103 281.731 245.554 281.438 247.021 281.438C248.487 281.438 249.938 281.731 251.289 282.3C252.64 282.87 253.864 283.704 254.888 284.753C255.912 285.802 256.716 287.046 257.252 288.411C257.788 289.775 258.046 291.233 258.01 292.699C258.01 293.262 257.787 293.802 257.39 294.2C256.992 294.599 256.453 294.824 255.89 294.825Z" fill="white"/>
<path d="M221.633 314.527C221.07 314.525 220.531 314.301 220.133 313.902C219.736 313.503 219.513 312.964 219.513 312.401C219.513 311.264 219.061 310.174 218.258 309.37C217.454 308.567 216.364 308.115 215.227 308.115C214.091 308.115 213.001 308.567 212.197 309.37C211.393 310.174 210.942 311.264 210.942 312.401C210.958 312.689 210.915 312.978 210.815 313.25C210.716 313.522 210.562 313.77 210.363 313.98C210.165 314.19 209.925 314.357 209.66 314.472C209.394 314.586 209.108 314.645 208.819 314.645C208.53 314.645 208.243 314.586 207.978 314.472C207.712 314.357 207.473 314.19 207.274 313.98C207.075 313.77 206.922 313.522 206.822 313.25C206.723 312.978 206.68 312.689 206.696 312.401C206.696 310.138 207.595 307.968 209.195 306.368C210.795 304.768 212.965 303.869 215.227 303.869C217.49 303.869 219.66 304.768 221.26 306.368C222.86 307.968 223.759 310.138 223.759 312.401C223.759 312.965 223.535 313.506 223.136 313.904C222.737 314.303 222.197 314.527 221.633 314.527Z" fill="white"/>
<path d="M172.45 301.552C171.373 301.518 170.299 301.418 169.235 301.25C167.397 301.001 165.297 300.719 163.984 301.093C160.211 302.13 158.734 301.047 158.183 300.312C157.986 300.046 157.854 299.738 157.795 299.413C155.945 288.945 163.774 285.034 167.981 282.927C172.516 280.663 175.364 276.056 175.39 276.003C175.687 275.53 176.158 275.193 176.701 275.064C177.245 274.935 177.817 275.025 178.295 275.315C178.772 275.604 179.117 276.07 179.253 276.611C179.39 277.153 179.309 277.727 179.026 278.208C178.888 278.438 175.535 283.905 169.884 286.74C164.404 289.477 161.405 292.049 161.792 297.241C162.151 297.185 162.506 297.108 162.855 297.011C165.054 296.407 167.594 296.748 169.838 297.05C170.811 297.219 171.797 297.302 172.785 297.3C173.12 297.3 173.146 297.247 173.5 296.906C173.989 296.387 174.591 295.989 175.259 295.743C175.928 295.497 176.645 295.41 177.353 295.488C177.596 295.488 177.74 295.416 178.363 294.76C178.987 294.103 180.148 292.909 181.907 293.067C182.767 293.164 183.637 293.007 184.408 292.614C185.241 290.317 187.65 289.444 187.925 289.332C188.194 289.225 188.481 289.173 188.77 289.18C189.059 289.188 189.344 289.254 189.607 289.375C189.869 289.496 190.104 289.67 190.298 289.885C190.491 290.1 190.638 290.352 190.731 290.626C190.823 290.9 190.859 291.19 190.836 291.478C190.812 291.766 190.73 292.047 190.595 292.302C190.459 292.558 190.273 292.783 190.048 292.964C189.823 293.145 189.563 293.278 189.284 293.355C188.919 293.486 188.608 293.732 188.398 294.058C187.512 296.683 184.073 297.437 181.835 297.3C181.724 297.405 181.592 297.549 181.481 297.661C180.7 298.487 179.4 299.866 177.097 299.708C176.98 299.683 176.859 299.683 176.742 299.708C176.641 299.787 176.544 299.873 176.454 299.964C175.589 300.867 174.419 301.415 173.172 301.5C172.903 301.539 172.68 301.552 172.45 301.552Z" fill="white"/>
<path d="M225.321 301.552C225.085 301.552 224.861 301.552 224.665 301.519C223.418 301.433 222.248 300.885 221.383 299.984C221.291 299.889 221.193 299.801 221.088 299.721C220.973 299.705 220.855 299.705 220.74 299.721C218.43 299.879 217.137 298.501 216.356 297.674L216.008 297.313C213.731 297.457 210.299 296.722 209.445 294.071C209.226 293.74 208.903 293.491 208.527 293.362C208.002 293.166 207.574 292.773 207.335 292.267C207.096 291.761 207.064 291.181 207.247 290.651C207.427 290.123 207.81 289.689 208.311 289.443C208.812 289.197 209.39 289.159 209.918 289.339C210.194 289.431 212.596 290.304 213.436 292.62C214.205 293.018 215.076 293.176 215.936 293.073C217.688 292.902 218.811 294.064 219.473 294.766C220.136 295.468 220.248 295.514 220.491 295.495C221.198 295.417 221.913 295.505 222.58 295.751C223.248 295.997 223.849 296.394 224.336 296.912C224.691 297.254 224.724 297.28 225.052 297.306C226.042 297.309 227.03 297.225 228.005 297.057C230.25 296.755 232.789 296.4 234.988 297.017C235.335 297.115 235.688 297.192 236.045 297.247C236.438 292.062 233.419 289.49 227.959 286.746C222.302 283.918 218.955 278.451 218.811 278.215C218.652 277.976 218.543 277.707 218.491 277.425C218.439 277.143 218.444 276.853 218.507 276.573C218.569 276.294 218.688 276.029 218.855 275.796C219.023 275.563 219.236 275.367 219.481 275.218C219.727 275.07 220 274.973 220.284 274.933C220.568 274.892 220.857 274.91 221.134 274.985C221.411 275.059 221.67 275.189 221.896 275.366C222.121 275.544 222.309 275.765 222.446 276.016C222.519 276.121 225.36 280.689 229.856 282.933C234.063 285.04 241.892 288.952 240.048 299.419C239.989 299.745 239.857 300.052 239.661 300.318C239.116 301.053 237.633 302.136 233.859 301.099C232.494 300.725 230.407 301.008 228.569 301.257C227.494 301.424 226.409 301.523 225.321 301.552Z" fill="white"/>
<path d="M209.196 196.416C208.871 196.416 208.55 196.343 208.258 196.201C207.965 196.059 207.71 195.851 207.509 195.595C207.172 195.161 207.021 194.61 207.088 194.064C207.156 193.518 207.437 193.021 207.87 192.681C207.954 192.61 208.023 192.523 208.074 192.425C208.074 192.425 208.035 192.36 207.956 192.261C207.64 191.852 207.487 191.339 207.528 190.824C207.57 190.308 207.802 189.826 208.179 189.472C208.29 189.36 208.387 189.234 208.468 189.098C208.368 188.96 208.286 188.81 208.225 188.652C208.008 188.12 207.864 187.339 208.606 184.058C209.085 181.945 208.605 177.062 206.02 172.822C203.342 168.412 201.491 166.174 198.833 166.174H198.413C195.788 166.174 193.911 168.412 191.194 172.822C188.615 177.062 188.129 181.945 188.615 184.058C189.35 187.3 189.206 188.087 188.996 188.652C188.932 188.811 188.849 188.961 188.746 189.098C188.83 189.232 188.927 189.357 189.035 189.472C189.414 189.825 189.647 190.307 189.688 190.823C189.729 191.34 189.576 191.852 189.258 192.261C189.21 192.319 189.171 192.383 189.14 192.452C189.205 192.535 189.275 192.614 189.35 192.688C189.741 193.05 189.98 193.546 190.019 194.077C190.059 194.607 189.896 195.134 189.563 195.549C189.231 195.965 188.753 196.239 188.227 196.317C187.7 196.395 187.164 196.271 186.725 195.969C186.144 195.51 185.669 194.93 185.334 194.27C184.85 193.321 184.758 192.22 185.078 191.205C184.671 190.544 184.445 189.788 184.421 189.013C184.411 188.378 184.572 187.752 184.887 187.201C184.789 186.46 184.651 185.723 184.474 184.996C183.713 181.656 184.526 175.664 187.558 170.689C190.341 166.095 193.262 162.007 198.387 162.007H198.84C203.966 162.007 206.886 166.115 209.675 170.683C212.701 175.664 213.521 181.656 212.76 184.996C212.582 185.724 212.442 186.46 212.34 187.201C212.661 187.75 212.822 188.377 212.806 189.013C212.787 189.791 212.56 190.55 212.149 191.211C212.397 192.077 212.372 192.998 212.078 193.849C211.785 194.7 211.237 195.44 210.509 195.969C210.132 196.258 209.671 196.415 209.196 196.416Z" fill="white"/>
<path d="M199.07 306.337H198.414C195.526 306.337 193.314 302.957 190.007 297.391C189.213 296.079 188.458 294.766 187.841 293.907C187.224 293.047 186.174 291.852 184.92 290.435C181.121 286.162 175.391 279.705 171.198 270.858C168.467 265.096 165.947 255.967 163.512 242.953C163.375 242.369 159.732 226.388 164.996 216.203C165.108 215.973 165.264 215.768 165.455 215.599C175.568 206.411 177.925 198.319 178.66 195.654C179.532 192.603 181.941 191.75 183.634 191.848C186.082 191.428 190.092 192.826 192.028 193.581C194.152 193.867 196.291 194.02 198.433 194.04H199.037C201.173 194.02 203.306 193.866 205.423 193.581C207.392 192.826 211.375 191.435 213.817 191.848C214.951 191.783 216.072 192.122 216.979 192.806C217.886 193.49 218.522 194.474 218.772 195.582C219.559 198.319 221.882 206.431 231.996 215.599C232.187 215.768 232.343 215.973 232.455 216.203C237.705 226.388 234.076 242.369 233.919 243.045C231.497 255.96 228.983 265.096 226.253 270.858C222.06 279.705 216.33 286.162 212.537 290.435C211.277 291.852 210.187 293.06 209.61 293.907C209.032 294.753 208.238 296.053 207.444 297.398C204.176 302.963 201.958 306.337 199.07 306.337ZM198.591 302.117H198.926C200.094 301.533 202.601 297.3 203.821 295.252C204.661 293.841 205.456 292.502 206.164 291.492C207.173 290.154 208.249 288.868 209.387 287.639C213.023 283.544 218.509 277.362 222.447 269.066C224.98 263.711 227.454 254.667 229.791 242.191C229.843 241.955 233.17 227.34 228.878 218.506C218.115 208.629 215.582 199.776 214.742 196.849C214.519 196.074 214.256 196.107 214.086 196.127C213.741 196.194 213.384 196.165 213.055 196.042C212.314 195.878 209.308 196.639 206.781 197.65C206.622 197.715 206.454 197.76 206.283 197.781C203.89 198.113 201.479 198.293 199.063 198.319H198.407C195.992 198.293 193.581 198.113 191.188 197.781C191.017 197.76 190.849 197.715 190.689 197.65C188.163 196.639 185.163 195.878 184.389 196.055C184.042 196.169 183.67 196.19 183.313 196.114C183.214 196.114 182.958 196.074 182.755 196.77C181.895 199.769 179.362 208.623 168.599 218.5C164.3 227.353 167.627 241.949 167.667 242.093C170.023 254.661 172.497 263.704 175.03 269.06C178.968 277.355 184.455 283.544 188.09 287.633C189.228 288.862 190.304 290.148 191.313 291.485C192.028 292.496 192.816 293.834 193.656 295.245C194.922 297.273 197.429 301.506 198.597 302.09L198.591 302.117Z" fill="white"/>
<path d="M198.945 300.843H198.906C198.537 300.833 198.186 300.679 197.929 300.415C197.671 300.15 197.527 299.795 197.528 299.426C197.528 290.966 197.455 282.363 197.383 274.034C197.311 266.08 197.245 257.85 197.239 249.752C197.239 246.989 197.101 244.147 196.983 241.404C196.845 238.037 196.701 234.552 196.733 231.12C196.773 229.519 196.865 227.95 196.957 226.382C197.094 223.881 197.245 221.302 197.173 218.769C197.173 216.084 197.311 213.42 197.442 210.841C197.619 207.336 197.803 203.714 197.659 200.17C197.642 199.799 197.772 199.437 198.019 199.161C198.267 198.884 198.613 198.716 198.983 198.692C199.353 198.668 199.718 198.79 199.999 199.032C200.28 199.274 200.456 199.616 200.487 199.986C200.812 204.171 200.898 208.372 200.743 212.567C200.658 214.805 200.704 217.069 200.743 219.261C200.783 221.131 200.822 223.061 200.743 224.984C200.438 230.406 200.477 235.842 200.861 241.26C200.993 244.022 201.137 246.884 201.183 249.719C201.183 253.151 201.183 256.551 201.144 259.95C201.104 272.905 201.065 286.3 200.323 299.485C200.31 299.844 200.16 300.185 199.904 300.438C199.648 300.69 199.305 300.835 198.945 300.843Z" fill="white"/>
<path d="M200.881 299.039C200.61 299.039 200.342 298.976 200.1 298.855C199.683 298.65 199.364 298.289 199.212 297.85C199.06 297.412 199.086 296.931 199.286 296.512L199.548 295.961C202.246 290.277 205.042 284.397 208.461 278.937C212.063 271.063 215.116 262.95 217.596 254.654C220.057 246.726 219.342 238.122 218.653 229.801L218.522 228.278C218.358 226.447 218.187 224.557 218.102 222.66C218.102 222.254 218.062 221.814 218.049 221.348C217.99 219.727 217.938 218.198 217.314 216.97C217.052 216.452 216.723 215.94 216.395 215.422C216.152 215.034 215.91 214.647 215.68 214.253C215.024 213.23 214.499 212.14 213.96 211.084C213.508 210.204 213.061 209.318 212.556 208.458C211.026 205.785 209.025 203.41 206.649 201.449C206.465 201.307 206.311 201.129 206.196 200.927C206.081 200.725 206.006 200.502 205.977 200.271C205.948 200.04 205.964 199.805 206.025 199.581C206.087 199.356 206.192 199.146 206.334 198.962C206.477 198.778 206.655 198.624 206.857 198.509C207.059 198.393 207.282 198.319 207.513 198.289C207.744 198.26 207.978 198.277 208.203 198.338C208.427 198.399 208.638 198.504 208.822 198.647C211.583 200.832 213.924 203.501 215.732 206.522C216.343 207.5 216.874 208.491 217.386 209.456C217.898 210.421 218.404 211.372 218.961 212.265C219.191 212.646 219.414 212.987 219.618 213.335C220.011 213.932 220.399 214.536 220.74 215.179C221.777 217.148 221.882 219.313 221.967 221.203C221.967 221.604 222.006 222.011 222.033 222.404C222.177 224.505 222.374 226.618 222.571 228.744C223.391 237.689 224.238 246.943 221.468 255.836C219.014 263.593 215.916 272.695 211.486 281.431C211.458 281.495 211.423 281.557 211.381 281.614C208.713 285.768 206.302 290.081 204.162 294.53C203.571 295.698 202.987 296.866 202.39 298.028C202.253 298.317 202.04 298.563 201.774 298.741C201.509 298.918 201.2 299.021 200.881 299.039Z" fill="white"/>
<path d="M197.101 299.039C196.775 299.04 196.456 298.952 196.178 298.783C195.9 298.613 195.674 298.37 195.526 298.081C194.931 296.921 194.34 295.759 193.754 294.596C191.612 290.144 189.201 285.826 186.535 281.667C186.496 281.608 186.461 281.547 186.43 281.483C182 272.748 178.902 263.652 176.454 255.888C173.678 246.982 174.525 237.735 175.352 228.784C175.542 226.664 175.739 224.551 175.883 222.457C175.883 222.05 175.929 221.65 175.949 221.243C176.034 219.359 176.139 217.22 177.163 215.244C177.517 214.588 177.911 213.971 178.298 213.374C178.522 213.033 178.745 212.718 178.955 212.337C179.532 211.418 180.024 210.493 180.549 209.509C181.075 208.524 181.593 207.54 182.19 206.581C184.005 203.56 186.35 200.892 189.114 198.706C189.486 198.418 189.956 198.289 190.423 198.348C190.889 198.408 191.313 198.649 191.601 199.021C191.889 199.393 192.018 199.864 191.959 200.33C191.9 200.796 191.658 201.22 191.286 201.508C188.908 203.474 186.907 205.856 185.38 208.537C184.888 209.371 184.441 210.25 183.995 211.13C183.457 212.186 182.899 213.282 182.249 214.339C182.039 214.7 181.796 215.087 181.554 215.474C181.225 215.993 180.897 216.504 180.622 217.036C180.011 218.25 179.965 219.779 179.906 221.4C179.906 221.834 179.906 222.273 179.847 222.713C179.762 224.583 179.591 226.473 179.427 228.304L179.296 229.827C178.64 238.149 177.892 246.753 180.353 254.681C182.833 262.976 185.886 271.09 189.488 278.963C192.907 284.423 195.703 290.304 198.4 295.987L198.663 296.538C198.863 296.957 198.889 297.438 198.737 297.877C198.584 298.315 198.266 298.676 197.849 298.881C197.614 298.988 197.359 299.042 197.101 299.039Z" fill="white"/>
<path d="M246.362 248.524C243.737 248.524 239.445 246.812 238.539 240.032C238.529 239.903 238.529 239.774 238.539 239.645C238.658 237.309 238.165 236.272 237.988 236.094C237.096 235.661 233.046 232.885 233.046 229.414C233.046 228.711 233.132 227.747 233.23 226.637C233.355 225.167 233.624 222.162 233.374 221.217C233.087 221.063 232.789 220.932 232.482 220.823C231.406 220.409 229.168 219.55 229.168 216.977C229.168 214.923 228.249 210.847 227.461 210.014C226.51 209.769 225.512 209.769 224.561 210.014C224.036 210.147 223.482 210.079 223.005 209.823C222.756 209.686 216.856 206.378 215.786 196.855C215.735 196.414 215.824 195.968 216.041 195.581C216.258 195.193 216.591 194.883 216.994 194.696C217.473 194.473 228.807 189.229 239.117 192.872C246.185 195.372 250.136 209.548 251.179 213.84C253.942 225.2 254.861 240.931 248.364 247.855C248.019 248.223 247.553 248.456 247.051 248.511C246.822 248.53 246.592 248.534 246.362 248.524ZM242.779 239.652C243.284 243.104 244.853 243.996 245.831 244.206C249.558 239.179 250.077 227.366 247.025 214.818C244.341 203.792 240.298 197.754 237.68 196.849C230.979 194.48 223.353 196.763 220.223 197.925C221.135 202.519 223.412 204.829 224.482 205.676C226.063 205.419 227.684 205.575 229.187 206.129C232.58 207.546 233.269 214.877 233.381 216.629C233.565 216.714 233.814 216.806 233.998 216.878C235.16 217.217 236.183 217.919 236.918 218.88C237.949 220.409 237.798 223.1 237.45 227.038C237.358 228.002 237.279 228.915 237.279 229.433C237.279 230.188 239.045 231.914 239.983 232.38C241.119 232.931 242.976 234.631 242.779 239.652Z" fill="white"/>
<path d="M151.273 248.393C151.053 248.391 150.834 248.376 150.616 248.347C150.114 248.292 149.649 248.06 149.304 247.691C142.8 240.761 143.725 225.03 146.488 213.669C147.532 209.377 151.483 195.201 158.544 192.701C168.841 189.059 180.201 194.302 180.674 194.525C181.075 194.716 181.407 195.027 181.624 195.416C181.84 195.804 181.93 196.25 181.882 196.691C180.799 206.207 174.899 209.522 174.663 209.653C174.185 209.914 173.626 209.982 173.101 209.843C172.154 209.595 171.159 209.595 170.213 209.843C169.425 210.677 168.507 214.752 168.507 216.806C168.507 219.379 166.269 220.239 165.192 220.652C164.885 220.761 164.587 220.893 164.3 221.046C164.05 221.991 164.3 224.984 164.444 226.467C164.543 227.583 164.628 228.541 164.628 229.249C164.628 232.715 160.579 235.491 159.581 235.99C159.502 236.101 159.017 237.138 159.135 239.481C159.148 239.61 159.148 239.739 159.135 239.868C158.196 246.674 153.917 248.387 151.273 248.393ZM166.439 195.681C164.237 195.655 162.047 196.004 159.962 196.711C157.337 197.643 153.294 203.661 150.616 214.68C147.565 227.228 148.083 239.054 151.811 244.075C152.775 243.865 154.351 242.979 154.862 239.514C154.659 234.493 156.523 232.793 157.658 232.222C158.597 231.756 160.362 230.03 160.362 229.282C160.362 228.757 160.277 227.845 160.191 226.88C159.844 222.943 159.693 220.252 160.716 218.723C161.456 217.763 162.481 217.062 163.643 216.721C163.827 216.649 164.077 216.557 164.26 216.472C164.372 214.739 165.061 207.408 168.454 205.971C169.958 205.411 171.583 205.255 173.166 205.518C174.223 204.678 176.507 202.394 177.412 197.761C173.9 196.447 170.189 195.743 166.439 195.681Z" fill="white"/>
<path d="M141.973 166.483L137.858 169.442L121.412 146.571L131.532 139.299C132.469 138.617 133.533 138.13 134.662 137.869C135.739 137.621 136.852 137.579 137.944 137.744C139.04 137.916 140.092 138.299 141.041 138.873C142.022 139.461 142.871 140.245 143.535 141.176C143.778 141.533 143.977 141.919 144.126 142.325C144.338 142.809 144.496 143.315 144.598 143.834C144.692 144.323 144.714 144.822 144.664 145.317C144.63 145.752 144.452 146.163 144.159 146.486C144.668 146.216 145.248 146.111 145.819 146.184C146.471 146.255 147.106 146.437 147.696 146.722C148.341 147.027 148.947 147.408 149.501 147.857C150.039 148.282 150.518 148.776 150.925 149.327C151.615 150.279 152.102 151.362 152.356 152.51C152.839 154.744 152.437 157.078 151.233 159.021C150.612 160.024 149.795 160.892 148.831 161.573L141.973 166.483ZM130.383 148.041L132.864 151.486L137.957 147.824C138.175 147.667 138.359 147.466 138.495 147.234C138.63 147.003 138.719 146.749 138.757 146.486C138.797 146.221 138.783 145.951 138.718 145.691C138.65 145.42 138.532 145.165 138.37 144.937C138.207 144.706 138 144.509 137.76 144.359C137.53 144.209 137.274 144.105 137.005 144.051C136.743 143.995 136.473 143.995 136.211 144.051C135.945 144.101 135.694 144.211 135.476 144.372L130.383 148.041ZM145.255 156.205C145.493 156.031 145.69 155.807 145.832 155.549C145.97 155.297 146.057 155.02 146.088 154.735C146.123 154.439 146.105 154.139 146.036 153.849C145.969 153.551 145.841 153.269 145.662 153.022C145.483 152.776 145.261 152.564 145.005 152.399C144.763 152.246 144.493 152.141 144.211 152.09C143.931 152.038 143.644 152.038 143.365 152.09C143.079 152.147 142.808 152.263 142.571 152.431L136.618 156.71L139.315 160.464L145.255 156.205Z" fill="white"/>
<path d="M162.404 123.896L167.706 122.282L187.677 145.652L183.707 146.86C183.302 146.985 182.883 147.054 182.46 147.063C182.054 147.075 181.65 147.026 181.259 146.919C180.866 146.809 180.491 146.646 180.143 146.433C179.786 146.215 179.466 145.94 179.198 145.619L176.973 143.034L166.256 146.315L165.882 149.695C165.834 150.088 165.719 150.47 165.541 150.824C165.366 151.198 165.146 151.548 164.884 151.867C164.612 152.187 164.299 152.47 163.952 152.707C163.609 152.938 163.233 153.117 162.837 153.239L158.853 154.446L162.404 123.896ZM166.998 139.956L172.747 138.203L168.684 133.281C168.508 133.074 168.345 132.855 168.199 132.625C168.067 132.421 167.956 132.231 167.864 132.067C167.761 131.898 167.673 131.72 167.601 131.536C167.601 131.719 167.647 131.923 167.66 132.152C167.672 132.371 167.672 132.59 167.66 132.809C167.66 133.052 167.66 133.321 167.66 133.603L166.998 139.956Z" fill="white"/>
<path d="M197.757 134.646C197.734 135.337 197.862 136.024 198.131 136.661C198.392 137.288 198.768 137.86 199.241 138.348C199.714 138.834 200.272 139.23 200.888 139.516C201.515 139.807 202.196 139.968 202.887 139.988C203.579 140.008 204.267 139.888 204.911 139.634C205.547 139.386 206.132 139.024 206.637 138.564C207.144 138.109 207.558 137.561 207.858 136.95C208.157 136.335 208.325 135.664 208.35 134.981L208.842 118.16L215.267 118.351L214.775 135.171C214.738 136.73 214.376 138.263 213.712 139.673C213.076 141.031 212.184 142.255 211.086 143.276C209.981 144.301 208.692 145.107 207.287 145.652C205.825 146.225 204.261 146.49 202.693 146.433C201.644 146.404 200.605 146.234 199.602 145.928C198.631 145.634 197.704 145.213 196.845 144.674C195.993 144.149 195.212 143.516 194.522 142.791C193.118 141.338 192.124 139.541 191.641 137.58C191.383 136.566 191.271 135.521 191.306 134.476L191.805 117.655L198.25 117.845L197.757 134.646Z" fill="white"/>
<path d="M222.433 148.605L231.621 121.98L237.698 124.08L230.479 145.016L240.98 148.645L239.011 154.335L222.433 148.605Z" fill="white"/>
<path d="M268.058 139.299L272.541 142.581L265.886 172.593L262.532 170.145C262.192 169.897 261.887 169.603 261.627 169.272C261.367 168.957 261.161 168.603 261.016 168.222C260.866 167.846 260.771 167.45 260.734 167.047C260.692 166.63 260.718 166.209 260.813 165.8L261.541 162.466L252.491 155.844L249.603 157.616C249.256 157.811 248.879 157.948 248.488 158.023C248.081 158.099 247.667 158.125 247.254 158.102C246.833 158.08 246.418 157.998 246.02 157.859C245.626 157.726 245.254 157.533 244.918 157.288L241.557 154.834L268.058 139.299ZM258.011 152.648L262.867 156.185L264.357 149.977C264.415 149.712 264.492 149.451 264.586 149.196C264.672 148.966 264.757 148.763 264.829 148.592C264.906 148.409 264.996 148.231 265.098 148.061C264.967 148.192 264.816 148.336 264.646 148.481C264.475 148.625 264.337 148.743 264.14 148.894C263.943 149.045 263.727 149.19 263.484 149.34L258.011 152.648Z" fill="white"/>
<path d="M120.355 267.019C118.826 267.019 117.684 265.778 117.586 264.026C117.509 262.781 117.918 261.555 118.728 260.607C118.866 260.434 119.067 260.322 119.287 260.296C119.507 260.27 119.728 260.332 119.902 260.469L120.303 260.777C120.392 260.846 120.466 260.933 120.521 261.031C120.576 261.13 120.611 261.238 120.623 261.35C120.635 261.462 120.625 261.576 120.593 261.684C120.56 261.791 120.506 261.892 120.434 261.978C120.184 262.238 119.991 262.548 119.869 262.887C119.746 263.226 119.698 263.588 119.725 263.947C119.725 264.387 119.968 264.846 120.316 264.833C120.506 264.833 120.729 264.833 120.92 263.521C121.044 262.687 121.366 260.476 123.545 260.364C125.048 260.285 126.295 261.532 126.387 263.284C126.475 264.343 126.163 265.397 125.514 266.238C125.451 266.328 125.37 266.405 125.276 266.464C125.183 266.523 125.078 266.562 124.969 266.579C124.855 266.6 124.738 266.598 124.625 266.572C124.512 266.546 124.406 266.497 124.313 266.428L123.893 266.12C123.8 266.055 123.722 265.972 123.664 265.876C123.605 265.78 123.567 265.673 123.551 265.562C123.531 265.447 123.536 265.329 123.564 265.216C123.592 265.103 123.644 264.997 123.716 264.905C124.078 264.472 124.257 263.914 124.214 263.35C124.214 262.864 123.926 262.517 123.696 262.523C123.466 262.53 123.263 262.523 123.04 263.908C122.816 265.293 122.383 266.901 120.467 267.006L120.355 267.019Z" fill="white"/>
<path d="M123.597 280.249C122.605 280.262 121.64 279.931 120.865 279.313C120.089 278.694 119.552 277.826 119.344 276.856C119.213 276.282 119.204 275.686 119.317 275.107C119.43 274.528 119.663 273.98 120.001 273.496C120.654 272.57 121.634 271.927 122.744 271.698H122.783C123.881 271.458 125.028 271.638 125.999 272.203C126.503 272.506 126.938 272.911 127.277 273.391C127.616 273.871 127.851 274.417 127.968 274.993C128.092 275.554 128.102 276.134 127.998 276.699C127.894 277.264 127.679 277.803 127.364 278.283C127.049 278.764 126.641 279.176 126.164 279.497C125.688 279.818 125.152 280.04 124.588 280.151C124.263 280.221 123.93 280.254 123.597 280.249ZM123.794 273.785C123.604 273.785 123.414 273.807 123.23 273.851C122.634 273.967 122.105 274.308 121.753 274.802C121.591 275.035 121.479 275.298 121.425 275.576C121.371 275.854 121.375 276.14 121.438 276.417C121.505 276.694 121.626 276.955 121.794 277.185C121.963 277.414 122.176 277.608 122.42 277.755C122.665 277.901 122.936 277.998 123.218 278.038C123.5 278.079 123.787 278.063 124.063 277.992C124.665 277.885 125.203 277.552 125.566 277.06C125.728 276.827 125.84 276.564 125.894 276.286C125.948 276.008 125.944 275.722 125.881 275.445C125.825 275.172 125.712 274.914 125.549 274.688C125.387 274.461 125.177 274.272 124.936 274.133C124.588 273.911 124.187 273.789 123.774 273.778L123.794 273.785Z" fill="white"/>
<path d="M126.675 292.397C126.225 292.402 125.779 292.317 125.362 292.148C124.91 291.954 124.502 291.671 124.164 291.314C123.825 290.957 123.563 290.535 123.393 290.074C122.553 287.993 123.393 286.09 125.566 285.217L129.333 283.695C129.543 283.609 129.779 283.609 129.989 283.695C130.192 283.784 130.352 283.949 130.435 284.154L130.626 284.633C130.667 284.735 130.689 284.844 130.688 284.954C130.687 285.064 130.665 285.172 130.623 285.274C130.58 285.375 130.518 285.467 130.439 285.544C130.361 285.621 130.268 285.682 130.166 285.723L126.452 287.226C125.375 287.659 125.021 288.348 125.402 289.28C125.638 289.864 126.117 290.592 127.521 290.015L131.282 288.492C131.489 288.41 131.72 288.413 131.926 288.5C132.131 288.587 132.293 288.752 132.378 288.958L132.568 289.437C132.61 289.539 132.631 289.649 132.63 289.759C132.629 289.869 132.606 289.978 132.563 290.079C132.519 290.181 132.456 290.272 132.377 290.349C132.298 290.426 132.205 290.486 132.102 290.527L128.401 292.023C127.854 292.255 127.269 292.382 126.675 292.397Z" fill="white"/>
<path d="M130.272 302.497C130.128 302.497 129.986 302.46 129.861 302.388C129.735 302.317 129.63 302.214 129.557 302.09L129.314 301.703C129.225 301.566 129.178 301.407 129.178 301.244C129.178 301.081 129.225 300.921 129.314 300.785L133.698 294.537C133.778 294.422 133.885 294.328 134.01 294.265C134.135 294.202 134.273 294.172 134.413 294.176C134.547 294.188 134.676 294.231 134.789 294.301C134.903 294.372 134.999 294.468 135.069 294.583L135.371 295.068C135.455 295.21 135.496 295.372 135.489 295.537C135.482 295.701 135.428 295.86 135.332 295.994L132.438 300.043L137.366 299.328C137.529 299.304 137.694 299.329 137.842 299.399C137.991 299.469 138.115 299.581 138.2 299.721L138.489 300.187C138.561 300.307 138.602 300.443 138.609 300.583C138.616 300.722 138.588 300.862 138.528 300.988C138.468 301.116 138.376 301.226 138.261 301.309C138.146 301.392 138.012 301.444 137.872 301.46L130.305 302.491L130.272 302.497Z" fill="white"/>
<path d="M139.401 314.593C139.277 314.595 139.154 314.57 139.041 314.521C138.928 314.471 138.826 314.397 138.745 314.304L135.503 310.511C135.359 310.341 135.288 310.122 135.305 309.901C135.322 309.68 135.426 309.474 135.594 309.329L140.845 304.821C140.928 304.748 141.025 304.694 141.129 304.659C141.234 304.625 141.345 304.611 141.454 304.62C141.564 304.629 141.671 304.659 141.769 304.709C141.868 304.759 141.955 304.828 142.026 304.912L145.235 308.66C145.379 308.829 145.452 309.048 145.439 309.27C145.42 309.492 145.314 309.698 145.143 309.841L144.782 310.156C144.699 310.228 144.602 310.283 144.497 310.318C144.393 310.352 144.282 310.365 144.173 310.357C144.063 310.348 143.956 310.318 143.857 310.268C143.759 310.218 143.672 310.148 143.601 310.064L141.271 307.341L140.471 307.997L142.512 310.379C142.584 310.463 142.639 310.559 142.673 310.664C142.707 310.769 142.721 310.879 142.712 310.989C142.704 311.099 142.673 311.206 142.623 311.304C142.573 311.402 142.504 311.489 142.42 311.561L142.059 311.869C141.89 312.014 141.671 312.087 141.448 312.072C141.226 312.054 141.021 311.947 140.877 311.777L138.836 309.395L137.996 310.117L140.359 312.873C140.503 313.043 140.574 313.262 140.556 313.484C140.537 313.704 140.433 313.908 140.267 314.054L139.906 314.369C139.766 314.497 139.589 314.575 139.401 314.593Z" fill="white"/>
<path d="M148.989 323.505C148.791 323.503 148.599 323.433 148.445 323.308L148.156 323.059C148.061 322.979 147.984 322.878 147.933 322.764C147.882 322.651 147.857 322.527 147.861 322.402L148.031 316.936L145.603 319.81C145.459 319.979 145.254 320.085 145.033 320.103C144.811 320.122 144.592 320.052 144.422 319.909L144.041 319.587C143.957 319.516 143.887 319.429 143.836 319.332C143.785 319.234 143.754 319.127 143.745 319.017C143.736 318.907 143.749 318.796 143.783 318.691C143.817 318.587 143.871 318.489 143.943 318.406L148.432 313.103C148.502 313.017 148.589 312.947 148.687 312.896C148.785 312.846 148.892 312.815 149.003 312.808C149.225 312.795 149.445 312.865 149.62 313.004L149.987 313.319C150.081 313.4 150.157 313.501 150.208 313.615C150.259 313.728 150.284 313.851 150.282 313.976L150.112 319.285L152.461 316.509C152.606 316.34 152.811 316.234 153.032 316.214C153.142 316.203 153.253 316.214 153.358 316.248C153.463 316.282 153.56 316.337 153.643 316.411L154.023 316.726C154.108 316.796 154.177 316.883 154.228 316.981C154.279 317.079 154.31 317.186 154.319 317.296C154.328 317.406 154.315 317.516 154.282 317.621C154.248 317.726 154.193 317.823 154.122 317.907L149.633 323.216C149.561 323.301 149.473 323.37 149.374 323.42C149.274 323.469 149.166 323.498 149.055 323.505H148.989Z" fill="white"/>
<path d="M155.67 328.171C155.51 328.17 155.353 328.125 155.217 328.04L154.784 327.764C154.597 327.643 154.466 327.453 154.418 327.236C154.37 327.019 154.41 326.791 154.528 326.603L158.262 320.749C158.386 320.563 158.576 320.431 158.794 320.381C158.905 320.355 159.021 320.351 159.134 320.37C159.246 320.389 159.354 320.431 159.45 320.493L159.884 320.768C159.977 320.828 160.057 320.905 160.121 320.995C160.184 321.086 160.229 321.188 160.252 321.296C160.276 321.404 160.279 321.515 160.259 321.624C160.24 321.733 160.199 321.837 160.14 321.93L156.405 327.784C156.286 327.971 156.097 328.103 155.88 328.151C155.811 328.167 155.741 328.173 155.67 328.171Z" fill="white"/>
<path d="M167.41 334.399C167.286 334.4 167.162 334.373 167.049 334.32L166.459 334.045C166.342 333.99 166.24 333.908 166.16 333.807C166.081 333.705 166.025 333.587 165.999 333.461L165.304 330.324L164.385 329.884L163.512 331.735C163.466 331.834 163.4 331.922 163.319 331.996C163.238 332.069 163.143 332.125 163.039 332.161C162.936 332.205 162.824 332.228 162.711 332.228C162.599 332.228 162.487 332.205 162.383 332.161L161.917 331.938C161.717 331.843 161.562 331.672 161.487 331.463C161.412 331.254 161.423 331.024 161.517 330.822L164.477 324.542C164.572 324.341 164.743 324.186 164.952 324.111C165.161 324.036 165.391 324.047 165.592 324.141L168.218 325.382C169.084 325.744 169.771 326.436 170.127 327.305C170.362 327.97 170.325 328.702 170.022 329.339C169.821 329.803 169.491 330.199 169.071 330.479C168.651 330.76 168.158 330.913 167.653 330.921L168.198 333.408C168.227 333.53 168.227 333.658 168.2 333.78C168.172 333.903 168.117 334.017 168.039 334.115C167.96 334.213 167.861 334.292 167.747 334.346C167.634 334.4 167.51 334.427 167.384 334.425L167.41 334.399ZM166.656 328.585C166.95 328.746 167.288 328.808 167.62 328.762C167.715 328.744 167.804 328.703 167.878 328.643C167.953 328.582 168.011 328.503 168.047 328.414C168.296 327.889 167.778 327.515 167.299 327.292L165.914 326.635L165.297 327.948L166.656 328.585Z" fill="white"/>
<path d="M177.202 337.753C176.833 337.751 176.466 337.696 176.113 337.589C174.914 337.249 173.895 336.456 173.271 335.377C173.153 335.191 173.114 334.965 173.162 334.75C173.21 334.535 173.341 334.347 173.527 334.229L173.96 333.946C174.057 333.886 174.165 333.845 174.278 333.827C174.391 333.809 174.506 333.814 174.617 333.841C174.727 333.867 174.831 333.914 174.922 333.981C175.013 334.047 175.09 334.132 175.148 334.229C175.308 334.549 175.534 334.832 175.811 335.058C176.088 335.284 176.41 335.449 176.756 335.541C177.026 335.649 177.326 335.649 177.596 335.541C177.643 335.517 177.685 335.482 177.718 335.44C177.75 335.398 177.774 335.35 177.786 335.298C177.846 335.121 177.911 334.898 176.743 334.288C176.001 333.894 174.026 332.85 174.636 330.77C175.069 329.293 176.664 328.571 178.338 329.064C179.364 329.339 180.254 329.981 180.838 330.868C180.904 330.963 180.95 331.07 180.974 331.183C180.997 331.295 180.998 331.412 180.976 331.525C180.934 331.744 180.81 331.939 180.628 332.069L180.195 332.365C180.101 332.431 179.994 332.477 179.881 332.5C179.768 332.522 179.651 332.521 179.539 332.496C179.318 332.449 179.125 332.317 179.001 332.128C178.71 331.64 178.238 331.286 177.688 331.144C177.449 331.053 177.185 331.053 176.946 331.144C176.895 331.16 176.848 331.188 176.809 331.226C176.771 331.264 176.741 331.31 176.723 331.361C176.671 331.544 176.605 331.781 177.826 332.43C178.482 332.778 180.451 333.835 179.88 335.882C179.703 336.446 179.344 336.935 178.859 337.273C178.375 337.611 177.793 337.78 177.202 337.753Z" fill="white"/>
<path d="M194.476 340.614L193.819 340.581C193.598 340.568 193.39 340.467 193.243 340.301C193.095 340.135 193.019 339.917 193.032 339.695L193.078 338.855C193.084 338.741 193.115 338.628 193.167 338.525C193.219 338.423 193.291 338.332 193.38 338.258C193.34 338.151 193.32 338.038 193.321 337.924L193.426 333.494L193.465 332.805C193.47 332.694 193.497 332.586 193.544 332.487C193.591 332.387 193.657 332.298 193.739 332.224C193.821 332.15 193.916 332.093 194.02 332.057C194.124 332.02 194.234 332.004 194.344 332.01H194.915C195.026 332.016 195.134 332.044 195.234 332.092C195.333 332.139 195.423 332.206 195.496 332.289C195.57 332.371 195.627 332.467 195.664 332.571C195.7 332.676 195.716 332.786 195.709 332.896L195.67 333.592L195.27 338.035C195.257 338.147 195.224 338.256 195.171 338.357C195.317 338.525 195.393 338.744 195.381 338.967L195.329 339.807C195.322 340.027 195.228 340.235 195.069 340.386C194.909 340.538 194.696 340.62 194.476 340.614Z" fill="white"/>
<path d="M212.786 339.544C211.768 339.534 210.786 339.164 210.014 338.5C209.242 337.836 208.729 336.921 208.566 335.915C208.446 335.35 208.441 334.767 208.55 334.199C208.659 333.632 208.881 333.092 209.202 332.612C209.523 332.132 209.937 331.721 210.42 331.403C210.902 331.086 211.444 330.868 212.012 330.763C212.606 330.647 213.217 330.652 213.809 330.777C214.401 330.902 214.961 331.145 215.457 331.492C215.553 331.552 215.635 331.63 215.7 331.723C215.764 331.815 215.809 331.919 215.833 332.03C215.856 332.14 215.857 332.254 215.835 332.364C215.813 332.475 215.77 332.58 215.707 332.673L215.412 333.106C215.286 333.289 215.095 333.415 214.878 333.458C214.66 333.501 214.435 333.457 214.25 333.336C213.99 333.131 213.689 332.984 213.368 332.904C213.047 332.824 212.712 332.812 212.386 332.87C212.119 332.921 211.864 333.026 211.639 333.178C211.413 333.33 211.221 333.527 211.073 333.756C210.754 334.266 210.641 334.879 210.758 335.469C210.856 336.075 211.179 336.622 211.664 336.998C211.886 337.162 212.139 337.279 212.408 337.341C212.676 337.403 212.955 337.409 213.226 337.359C213.564 337.301 213.885 337.169 214.166 336.971C214.446 336.774 214.679 336.516 214.847 336.217C214.974 336.038 215.166 335.916 215.382 335.877C215.598 335.838 215.82 335.884 216.002 336.007L216.403 336.276C216.497 336.338 216.577 336.418 216.639 336.511C216.701 336.605 216.743 336.71 216.763 336.821C216.806 337.049 216.756 337.285 216.626 337.477C216.287 338.006 215.842 338.458 215.319 338.805C214.796 339.152 214.206 339.386 213.587 339.492C213.323 339.537 213.054 339.555 212.786 339.544Z" fill="white"/>
<path d="M224.54 336.375C223.868 336.376 223.206 336.214 222.611 335.902C221.61 335.373 220.848 334.484 220.478 333.415C220.285 332.88 220.199 332.312 220.225 331.743C220.252 331.175 220.39 330.617 220.632 330.102C220.874 329.587 221.215 329.125 221.635 328.742C222.056 328.359 222.548 328.062 223.083 327.869C223.618 327.676 224.186 327.59 224.755 327.617C225.323 327.643 225.88 327.781 226.395 328.023C226.91 328.265 227.373 328.606 227.756 329.027C228.139 329.448 228.436 329.939 228.629 330.475C229.016 331.54 228.988 332.711 228.55 333.756C228.317 334.3 227.972 334.789 227.538 335.192C227.104 335.594 226.59 335.901 226.03 336.092C225.553 336.273 225.049 336.368 224.54 336.375ZM224.474 329.661C224.235 329.661 223.997 329.704 223.772 329.786C223.501 329.886 223.253 330.04 223.043 330.24C222.833 330.439 222.665 330.678 222.55 330.944C222.436 331.209 222.376 331.496 222.375 331.785C222.374 332.074 222.432 332.361 222.545 332.627C222.643 332.927 222.799 333.205 223.005 333.444C223.212 333.683 223.463 333.878 223.746 334.019C223.992 334.134 224.258 334.2 224.53 334.213C224.801 334.225 225.072 334.184 225.328 334.091C225.598 333.988 225.845 333.832 226.054 333.632C226.263 333.432 226.429 333.192 226.543 332.926C226.657 332.66 226.716 332.374 226.717 332.085C226.718 331.796 226.66 331.509 226.548 331.243C226.413 330.794 226.14 330.4 225.767 330.116C225.395 329.832 224.942 329.673 224.474 329.661Z" fill="white"/>
<path d="M235.9 331.223C235.469 331.22 235.039 331.167 234.62 331.065C234.512 331.044 234.409 331.002 234.317 330.94C234.225 330.879 234.146 330.8 234.085 330.707C234.023 330.615 233.981 330.512 233.961 330.403C233.94 330.294 233.941 330.183 233.964 330.074L234.076 329.569C234.096 329.457 234.14 329.35 234.204 329.256C234.267 329.161 234.35 329.081 234.445 329.019C234.541 328.958 234.649 328.916 234.761 328.898C234.874 328.88 234.989 328.885 235.1 328.913C235.44 329.025 235.801 329.063 236.157 329.025C236.514 328.986 236.858 328.872 237.167 328.69C237.407 328.579 237.602 328.389 237.718 328.151C237.749 328.094 237.765 328.03 237.765 327.964C237.765 327.899 237.749 327.835 237.718 327.777C237.626 327.62 237.515 327.416 236.261 327.777C235.454 328.027 233.328 328.69 232.284 326.793C231.542 325.48 232.146 323.807 233.682 322.96C234.6 322.423 235.686 322.248 236.727 322.468C236.944 322.507 237.137 322.63 237.265 322.809C237.331 322.904 237.377 323.011 237.401 323.123C237.424 323.236 237.425 323.353 237.403 323.466L237.311 323.978C237.27 324.201 237.143 324.399 236.957 324.529C236.861 324.593 236.754 324.637 236.641 324.658C236.529 324.679 236.413 324.678 236.3 324.654C235.752 324.516 235.171 324.596 234.679 324.877C234.435 324.995 234.241 325.198 234.135 325.448C234.105 325.53 234.105 325.621 234.135 325.704C234.233 325.881 234.345 326.091 235.664 325.704C236.379 325.48 238.538 324.811 239.602 326.681C240.369 328.086 239.766 329.733 238.177 330.619C237.481 331.009 236.698 331.217 235.9 331.223Z" fill="white"/>
<path d="M247.261 324.443H247.15C246.932 324.41 246.734 324.295 246.598 324.122L243.186 319.646L241.926 320.604C241.838 320.672 241.739 320.721 241.632 320.75C241.526 320.778 241.415 320.785 241.305 320.771C241.196 320.756 241.091 320.72 240.996 320.664C240.9 320.609 240.817 320.535 240.751 320.447L240.462 320.073C240.33 319.893 240.271 319.67 240.298 319.449C240.328 319.228 240.444 319.028 240.62 318.891L244.879 315.649C245.056 315.515 245.279 315.456 245.499 315.485C245.719 315.515 245.918 315.63 246.054 315.807L246.342 316.181C246.477 316.359 246.536 316.583 246.507 316.804C246.477 317.025 246.362 317.226 246.185 317.362L244.925 318.32L248.337 322.79C248.472 322.966 248.531 323.189 248.501 323.41C248.472 323.63 248.356 323.829 248.18 323.964L247.773 324.273C247.627 324.386 247.446 324.446 247.261 324.443Z" fill="white"/>
<path d="M253.883 318.944C253.829 318.95 253.774 318.95 253.719 318.944C253.58 318.918 253.45 318.857 253.342 318.766C253.234 318.675 253.151 318.558 253.102 318.425L250.346 311.206C250.288 311.057 250.274 310.893 250.307 310.736C250.339 310.579 250.417 310.435 250.529 310.32L250.877 309.959C250.989 309.847 251.13 309.769 251.285 309.733C251.439 309.697 251.6 309.705 251.75 309.756L259.009 312.309C259.142 312.355 259.262 312.434 259.357 312.538C259.452 312.642 259.52 312.769 259.553 312.906C259.585 313.044 259.581 313.188 259.544 313.324C259.506 313.46 259.435 313.585 259.337 313.687L258.943 314.094C258.83 314.209 258.687 314.29 258.53 314.326C258.373 314.362 258.209 314.352 258.057 314.297L256.561 313.759L254.461 315.918L255.038 317.402C255.097 317.552 255.111 317.716 255.08 317.874C255.048 318.032 254.972 318.178 254.861 318.294L254.487 318.675C254.41 318.758 254.317 318.825 254.213 318.872C254.109 318.918 253.997 318.943 253.883 318.944ZM253.148 312.552L253.607 313.733L254.336 312.978L253.148 312.552Z" fill="white"/>
<path d="M267.868 301.421C267.726 301.421 267.586 301.385 267.461 301.316L261.384 297.962C261.288 297.909 261.203 297.837 261.134 297.751C261.065 297.664 261.014 297.565 260.984 297.459C260.953 297.353 260.944 297.242 260.956 297.133C260.969 297.023 261.003 296.917 261.056 296.82L262.467 294.268C262.886 293.428 263.62 292.789 264.508 292.489C264.919 292.376 265.351 292.361 265.769 292.445C266.187 292.529 266.579 292.71 266.915 292.972C267.25 293.235 267.519 293.573 267.701 293.959C267.883 294.344 267.971 294.767 267.96 295.193L270.48 294.806C270.635 294.782 270.793 294.802 270.937 294.864C271.081 294.925 271.204 295.026 271.294 295.154C271.384 295.282 271.437 295.433 271.445 295.59C271.453 295.747 271.417 295.902 271.34 296.039L271.025 296.617C270.961 296.728 270.873 296.823 270.767 296.896C270.662 296.968 270.541 297.017 270.415 297.037L267.238 297.523L266.74 298.415L268.525 299.4C268.621 299.452 268.707 299.523 268.775 299.608C268.844 299.694 268.895 299.793 268.925 299.898C268.988 300.118 268.962 300.354 268.853 300.555L268.603 301.001C268.53 301.131 268.423 301.238 268.294 301.312C268.164 301.386 268.017 301.424 267.868 301.421ZM263.596 296.676L264.863 297.378L265.591 296.066C265.722 295.823 266.116 295.003 265.506 294.668C265.434 294.616 265.351 294.585 265.263 294.575C265.176 294.566 265.087 294.58 265.007 294.615C264.719 294.785 264.489 295.039 264.351 295.344L263.596 296.676Z" fill="white"/>
<path d="M273.466 289.949C273.36 289.949 273.256 289.929 273.158 289.89L266.693 287.357C266.591 287.317 266.497 287.257 266.419 287.18C266.34 287.103 266.277 287.012 266.234 286.911C266.188 286.807 266.165 286.695 266.165 286.582C266.165 286.469 266.188 286.358 266.234 286.254L266.424 285.775C266.463 285.672 266.523 285.578 266.598 285.499C266.674 285.419 266.765 285.355 266.866 285.311C266.967 285.267 267.076 285.244 267.186 285.242C267.296 285.241 267.405 285.261 267.507 285.303L273.971 287.836C274.178 287.917 274.344 288.076 274.434 288.279C274.524 288.481 274.53 288.712 274.45 288.919L274.26 289.404C274.197 289.56 274.089 289.694 273.95 289.788C273.811 289.883 273.647 289.934 273.479 289.936L273.466 289.949Z" fill="white"/>
<path d="M273.623 281.838C273.242 281.838 272.863 281.789 272.494 281.693H272.429C271.872 281.562 271.347 281.321 270.885 280.985C270.422 280.649 270.031 280.224 269.733 279.736C269.436 279.248 269.239 278.705 269.153 278.14C269.067 277.574 269.094 276.998 269.233 276.443C269.371 275.852 269.627 275.296 269.986 274.806C270.345 274.317 270.798 273.905 271.32 273.595C271.415 273.53 271.522 273.486 271.635 273.464C271.748 273.443 271.864 273.445 271.976 273.47C272.198 273.521 272.392 273.658 272.514 273.851L272.79 274.297C272.907 274.486 272.944 274.713 272.894 274.93C272.843 275.146 272.709 275.334 272.521 275.452C272.227 275.607 271.97 275.822 271.765 276.083C271.56 276.345 271.413 276.646 271.333 276.968C271.264 277.236 271.251 277.515 271.295 277.789C271.339 278.062 271.439 278.323 271.589 278.556C271.926 279.057 272.443 279.409 273.032 279.541C273.309 279.631 273.602 279.664 273.892 279.638C274.182 279.612 274.464 279.528 274.72 279.389C274.977 279.251 275.202 279.063 275.384 278.835C275.565 278.607 275.699 278.345 275.776 278.064C275.86 277.728 275.87 277.377 275.804 277.037C275.738 276.697 275.599 276.375 275.395 276.095C275.285 275.905 275.253 275.68 275.305 275.467C275.358 275.254 275.491 275.07 275.677 274.953L276.084 274.704C276.181 274.643 276.289 274.603 276.402 274.585C276.514 274.567 276.63 274.571 276.74 274.599C276.961 274.655 277.149 274.797 277.265 274.992C277.608 275.518 277.839 276.109 277.941 276.728C278.044 277.347 278.017 277.981 277.863 278.589C277.63 279.532 277.084 280.367 276.313 280.957C275.542 281.548 274.594 281.858 273.623 281.838Z" fill="white"/>
<path d="M278.611 270.103C278.467 270.104 278.325 270.068 278.198 269.998L271.491 266.238C271.352 266.158 271.238 266.04 271.162 265.899C271.087 265.757 271.053 265.597 271.064 265.437L271.104 264.945C271.117 264.785 271.175 264.633 271.272 264.505C271.368 264.377 271.499 264.279 271.648 264.223L278.867 261.552C279 261.502 279.143 261.487 279.283 261.507C279.423 261.528 279.556 261.584 279.668 261.67C279.781 261.754 279.871 261.866 279.929 261.994C279.986 262.123 280.009 262.265 279.996 262.405L279.95 262.963C279.937 263.123 279.878 263.277 279.781 263.405C279.683 263.533 279.55 263.63 279.399 263.685L277.909 264.229L277.673 267.229L279.064 267.997C279.205 268.075 279.321 268.192 279.398 268.334C279.474 268.476 279.509 268.636 279.498 268.797L279.452 269.335C279.44 269.473 279.394 269.606 279.317 269.72C279.24 269.835 279.135 269.929 279.012 269.992C278.89 270.062 278.752 270.1 278.611 270.103ZM274.503 265.47L275.606 266.08L275.691 265.043L274.503 265.47Z" fill="white"/>
</svg>
