<svg width="398" height="459" viewBox="0 0 398 459" fill="none" xmlns="http://www.w3.org/2000/svg">
<path d="M0 0H398V459H0V0Z" fill="#DCE6D3"/>
<path d="M67.8752 251C65.6252 251 63.4376 250.814 61.4376 250.565H50V221.484C50 210.796 58.5001 208 64.6876 208C76.4378 208 85.0628 211.915 85.0628 219.185C85.0628 224.342 80.8128 227.636 74.1877 229.127C82.5628 230.184 88.2504 233.477 88.2504 239.38C88.2504 246.65 79.6253 251 67.8752 251ZM64.4376 228.879C71.3127 228.754 74.6877 224.156 68.9377 217.01C66.0627 213.406 61.8751 211.666 58.5626 211.666C54.4375 211.666 53.9375 214.214 54.5625 215.767C56.1251 219.434 63.6876 219.061 63.6876 227.077V244.91C67.3752 249.136 70.8127 250.379 73.9377 248.701C76.3128 247.396 76.9378 241.99 73.6877 236.708C70.8752 232.234 67.4377 230.246 64.4376 230.246V228.879Z" fill="#97A97C"/>
<path d="M123.708 234.223C124.896 239.815 124.521 251 112.583 251C103.271 251 101.833 244.351 97.5205 244.351C93.1455 244.351 92.3954 247.582 92.3954 250.565H90.8329V208.435H104.521V227.884C104.521 235.092 94.708 232.358 92.7079 242.052C95.458 236.895 100.583 234.844 104.896 234.844C111.083 234.844 114.646 239.691 117.708 239.691C120.833 239.691 122.458 236.149 122.146 234.16L123.708 234.223Z" fill="#97A97C"/>
<path d="M142.409 208.062C154.159 208.062 163.597 217.632 163.597 229.5C163.597 241.368 154.159 251 142.409 251C130.722 251 121.221 241.368 121.221 229.5C121.221 217.632 130.722 208.062 142.409 208.062ZM152.972 246.402C156.534 244.165 154.784 234.782 148.909 225.523C143.097 216.202 135.472 210.423 131.847 212.66C128.284 214.897 130.097 224.218 135.909 233.539C141.722 242.86 149.409 248.577 152.972 246.402Z" fill="#97A97C"/>
<path d="M186.416 208.062C198.166 208.062 207.604 217.632 207.604 229.5C207.604 241.368 198.166 251 186.416 251C174.728 251 165.228 241.368 165.228 229.5C165.228 217.632 174.728 208.062 186.416 208.062ZM196.979 246.402C200.541 244.165 198.791 234.782 192.916 225.523C187.103 216.202 179.478 210.423 175.853 212.66C172.291 214.897 174.103 224.218 179.916 233.539C185.728 242.86 193.416 248.577 196.979 246.402Z" fill="#97A97C"/>
<path d="M227.22 217.197C228.971 222.913 228.783 221.981 230.096 226.89L230.408 228.195C230.471 227.76 230.596 227.325 230.721 226.89C232.096 221.981 231.908 222.913 233.596 217.197C236.033 209.118 241.283 208.497 249.096 208.435H250.721V250.565H237.033V249.384C237.033 234.098 247.846 241.803 248.971 213.655C247.783 217.445 247.471 218.315 245.721 224.28C242.596 234.471 231.221 231.116 231.221 241.617H229.658C229.658 231.116 218.283 234.471 215.158 224.28C213.345 218.191 213.033 217.445 211.783 213.468C212.908 241.803 223.845 234.098 223.845 249.384V250.565H210.158V208.435C218.845 208.435 224.658 208.559 227.22 217.197Z" fill="#97A97C"/>
<path d="M267.974 250.565H254.287V208.435H267.974V250.565Z" fill="#97A97C"/>
<path d="M289.936 217.321C293.186 223.1 297.062 229.873 299.687 234.72C301.124 237.392 302.249 239.504 303.062 241.431C301.062 218.191 291.374 224.156 291.374 209.616V208.435H304.999V250.565H303.437C303.437 240.747 290.874 246.402 284.999 236.149L273.311 215.705C274.936 241.431 285.186 234.533 285.186 249.384V250.565H271.561V208.435H273.124C278.624 208.435 284.874 208.559 289.936 217.321Z" fill="#97A97C"/>
<path d="M349 224.529V241.12C343.812 247.023 337.125 251 328.812 251C317.125 251 307.625 241.368 307.625 229.5C307.625 217.632 317.125 208.062 328.812 208.062C335 208.062 339.125 212.847 342.187 212.847C345.312 212.847 345.937 211.107 345.937 208.373H347.375C348.25 215.208 346.375 223.783 337.062 223.783C327.75 223.783 324.562 208.684 318.25 212.66C314.687 214.897 316.5 224.218 322.312 233.539C327.875 242.487 335.5 249.384 339.937 246.775C343.312 244.786 335.312 240.561 335.312 233.788V232.731H329.75V231.24H337.375C346.437 231.24 347.437 224.529 347.437 224.529H349Z" fill="#97A97C"/>
</svg>
