<svg width="398" height="459" viewBox="0 0 398 459" fill="none" xmlns="http://www.w3.org/2000/svg">
<path d="M0 0H398V459H0V0Z" fill="#61161D"/>
<path d="M189.401 264.792C189.421 264.805 189.437 264.821 189.449 264.84C189.462 264.859 189.471 264.881 189.475 264.903C189.479 264.949 189.468 264.994 189.443 265.032C189.431 265.05 189.416 265.064 189.398 265.075C189.38 265.085 189.36 265.091 189.339 265.093C189.297 265.096 189.256 265.086 189.219 265.064C188.988 264.904 188.735 264.776 188.468 264.685C188.189 264.591 187.895 264.544 187.601 264.546C187.264 264.543 186.93 264.609 186.619 264.739C186.318 264.866 186.046 265.052 185.818 265.286C185.586 265.529 185.405 265.814 185.282 266.127C185.019 266.818 185.019 267.582 185.282 268.273C185.405 268.586 185.586 268.871 185.818 269.114C186.046 269.348 186.318 269.534 186.619 269.661C186.93 269.791 187.264 269.857 187.601 269.855C187.894 269.857 188.186 269.81 188.464 269.715C188.728 269.623 188.979 269.498 189.212 269.343C189.248 269.317 189.292 269.306 189.335 269.311C189.357 269.313 189.378 269.321 189.396 269.332C189.415 269.344 189.43 269.359 189.443 269.377C189.468 269.413 189.479 269.457 189.475 269.5C189.472 269.522 189.465 269.543 189.453 269.561C189.442 269.58 189.427 269.596 189.409 269.608C189.253 269.715 189.087 269.806 188.912 269.88C188.707 269.969 188.494 270.039 188.275 270.089C188.054 270.141 187.828 270.167 187.601 270.168C187.22 270.17 186.843 270.094 186.492 269.946C186.15 269.8 185.841 269.589 185.58 269.323C185.315 269.053 185.104 268.734 184.959 268.384C184.659 267.625 184.659 266.78 184.959 266.021C185.104 265.671 185.315 265.352 185.58 265.082C185.841 264.817 186.15 264.605 186.492 264.46C186.843 264.31 187.22 264.235 187.601 264.238C187.928 264.237 188.254 264.287 188.566 264.386C188.864 264.478 189.146 264.615 189.401 264.792Z" fill="white"/>
<path d="M204.455 267.196C204.46 267.606 204.391 268.013 204.253 268.398C204.128 268.747 203.934 269.066 203.682 269.337C203.438 269.6 203.141 269.808 202.811 269.947C202.105 270.234 201.315 270.234 200.608 269.947C200.279 269.808 199.982 269.6 199.738 269.337C199.486 269.066 199.292 268.747 199.166 268.398C198.9 267.619 198.9 266.773 199.166 265.994C199.292 265.646 199.487 265.327 199.738 265.055C199.982 264.794 200.279 264.587 200.608 264.447C201.315 264.161 202.105 264.161 202.811 264.447C203.14 264.587 203.437 264.794 203.682 265.055C203.933 265.327 204.127 265.646 204.253 265.994C204.391 266.38 204.459 266.787 204.455 267.196ZM204.109 267.196C204.119 266.717 204.014 266.243 203.802 265.814C203.61 265.433 203.317 265.114 202.956 264.891C202.577 264.675 202.148 264.561 201.712 264.561C201.277 264.561 200.848 264.675 200.469 264.891C200.105 265.112 199.811 265.432 199.62 265.814C199.416 266.246 199.311 266.719 199.311 267.197C199.311 267.675 199.416 268.148 199.62 268.581C199.81 268.962 200.105 269.282 200.469 269.502C200.848 269.719 201.276 269.834 201.712 269.834C202.149 269.834 202.577 269.719 202.956 269.502C203.318 269.28 203.611 268.961 203.802 268.581C204.014 268.151 204.12 267.676 204.109 267.196Z" fill="white"/>
<path d="M215.983 270.162C215.604 270.177 215.227 270.104 214.881 269.947C214.55 269.782 214.248 269.562 213.989 269.296C213.976 269.283 213.965 269.268 213.957 269.252C213.945 269.227 213.939 269.2 213.941 269.173C213.941 269.149 213.947 269.125 213.957 269.104C213.966 269.082 213.98 269.062 213.998 269.046C214.013 269.027 214.031 269.012 214.053 269.001C214.074 268.99 214.097 268.984 214.121 268.983C214.148 268.984 214.175 268.992 214.199 269.005C214.224 269.018 214.244 269.036 214.26 269.058C214.469 269.301 214.728 269.496 215.019 269.629C215.309 269.763 215.625 269.832 215.945 269.833C216.201 269.837 216.455 269.791 216.693 269.697C216.897 269.617 217.076 269.483 217.211 269.309C217.338 269.14 217.404 268.932 217.4 268.72C217.406 268.475 217.325 268.236 217.17 268.046C217.011 267.867 216.816 267.724 216.598 267.626C216.365 267.515 216.12 267.415 215.863 267.32C215.66 267.243 215.46 267.164 215.263 267.082C215.073 267.004 214.893 266.903 214.728 266.781C214.569 266.664 214.44 266.512 214.35 266.336C214.251 266.13 214.203 265.903 214.21 265.674C214.207 265.414 214.283 265.16 214.428 264.944C214.585 264.717 214.801 264.538 215.053 264.426C215.356 264.29 215.685 264.224 216.017 264.232C216.329 264.232 216.639 264.289 216.93 264.401C217.206 264.5 217.448 264.675 217.628 264.907C217.672 264.958 217.7 265.019 217.71 265.086C217.708 265.108 217.702 265.13 217.691 265.15C217.68 265.17 217.666 265.188 217.648 265.202C217.612 265.238 217.563 265.258 217.512 265.259C217.492 265.26 217.471 265.255 217.453 265.247C217.434 265.238 217.418 265.225 217.405 265.209C217.306 265.076 217.185 264.961 217.048 264.867C216.904 264.769 216.745 264.695 216.577 264.646C216.395 264.593 216.206 264.566 216.017 264.567C215.767 264.564 215.519 264.609 215.287 264.699C215.079 264.775 214.894 264.904 214.751 265.073C214.618 265.243 214.549 265.455 214.555 265.671C214.545 265.898 214.622 266.121 214.771 266.293C214.928 266.462 215.117 266.599 215.326 266.695C215.551 266.803 215.781 266.901 216.017 266.989C216.225 267.06 216.432 267.137 216.638 267.223C216.836 267.305 217.024 267.412 217.196 267.54C217.363 267.667 217.499 267.83 217.594 268.017C217.7 268.244 217.751 268.492 217.742 268.742C217.743 268.992 217.667 269.237 217.525 269.443C217.368 269.666 217.158 269.844 216.912 269.962C216.621 270.096 216.303 270.164 215.983 270.162Z" fill="white"/>
<path d="M227.422 264.628C227.38 264.627 227.339 264.611 227.307 264.583C227.292 264.569 227.279 264.552 227.271 264.533C227.262 264.513 227.258 264.493 227.258 264.472C227.258 264.45 227.262 264.43 227.271 264.41C227.279 264.391 227.292 264.374 227.307 264.36C227.339 264.332 227.38 264.316 227.422 264.315H231.414C231.457 264.315 231.498 264.331 231.53 264.36C231.546 264.373 231.559 264.39 231.568 264.41C231.576 264.429 231.581 264.45 231.58 264.471C231.582 264.493 231.578 264.515 231.569 264.535C231.561 264.555 231.547 264.573 231.53 264.587C231.498 264.614 231.457 264.629 231.414 264.628H227.422ZM229.419 270.084C229.397 270.085 229.374 270.081 229.354 270.072C229.333 270.063 229.314 270.05 229.299 270.034C229.27 270.003 229.254 269.962 229.255 269.919V264.512H229.583V269.916C229.58 269.958 229.561 269.998 229.531 270.028C229.501 270.058 229.461 270.077 229.419 270.08V270.084Z" fill="white"/>
<path d="M243.346 264.735L241.268 269.972C241.258 270.004 241.237 270.032 241.209 270.051C241.183 270.069 241.152 270.079 241.12 270.08C241.099 270.082 241.078 270.081 241.057 270.075C241.037 270.07 241.018 270.06 241.002 270.047C240.985 270.034 240.971 270.018 240.961 270C240.95 269.981 240.944 269.961 240.941 269.94C240.936 269.912 240.939 269.883 240.95 269.856L243.16 264.406C243.17 264.37 243.192 264.339 243.222 264.318C243.252 264.304 243.284 264.297 243.317 264.299C243.355 264.296 243.392 264.306 243.424 264.327C243.451 264.347 243.471 264.374 243.481 264.406L245.691 269.856C245.697 269.878 245.7 269.9 245.7 269.922C245.701 269.944 245.697 269.966 245.688 269.986C245.68 270.006 245.666 270.024 245.65 270.039C245.615 270.067 245.571 270.082 245.527 270.08C245.491 270.08 245.455 270.07 245.425 270.051C245.396 270.033 245.374 270.005 245.362 269.972L243.221 264.669L243.346 264.735ZM241.827 268.295L241.941 267.965H244.604L244.686 268.295H241.827Z" fill="white"/>
<path d="M266.791 270.084C266.768 270.086 266.745 270.083 266.723 270.076C266.701 270.069 266.681 270.057 266.665 270.041C266.648 270.026 266.634 270.007 266.625 269.986C266.616 269.965 266.612 269.942 266.612 269.919V264.479C266.612 264.458 266.616 264.437 266.624 264.417C266.633 264.397 266.645 264.38 266.66 264.365C266.675 264.349 266.693 264.336 266.713 264.328C266.733 264.319 266.755 264.315 266.776 264.315H268.947C269.241 264.308 269.533 264.375 269.796 264.508C270.034 264.63 270.232 264.816 270.369 265.045C270.507 265.274 270.577 265.538 270.573 265.805C270.576 266.04 270.53 266.274 270.437 266.49C270.351 266.686 270.222 266.859 270.059 266.996C269.896 267.131 269.708 267.23 269.505 267.288L269.127 267.222C269.346 267.222 269.562 267.281 269.752 267.391C269.954 267.51 270.121 267.68 270.235 267.885C270.368 268.128 270.434 268.402 270.425 268.679C270.42 268.885 270.433 269.09 270.462 269.293C270.476 269.401 270.509 269.506 270.56 269.602C270.597 269.664 270.646 269.717 270.705 269.758C270.736 269.779 270.761 269.807 270.778 269.84C270.791 269.878 270.791 269.919 270.778 269.957C270.768 269.987 270.749 270.014 270.724 270.033C270.702 270.052 270.675 270.065 270.646 270.071C270.615 270.076 270.584 270.07 270.557 270.055C270.469 270.003 270.393 269.936 270.33 269.856C270.243 269.736 270.182 269.599 270.151 269.454C270.095 269.2 270.071 268.94 270.078 268.679C270.088 268.467 270.047 268.256 269.959 268.062C269.89 267.919 269.786 267.795 269.655 267.705C269.536 267.624 269.402 267.568 269.261 267.54C269.135 267.514 269.007 267.5 268.879 267.499H266.882L266.955 267.399V269.912C266.955 269.933 266.951 269.954 266.942 269.974C266.934 269.994 266.922 270.011 266.907 270.026C266.892 270.043 266.874 270.057 266.854 270.067C266.834 270.076 266.813 270.082 266.791 270.084ZM266.88 267.177H268.991C269.206 267.155 269.414 267.088 269.6 266.978C269.789 266.866 269.946 266.707 270.057 266.517C270.179 266.304 270.241 266.063 270.235 265.817C270.239 265.661 270.209 265.505 270.148 265.361C270.086 265.217 269.994 265.087 269.878 264.982C269.613 264.748 269.266 264.628 268.913 264.648H266.925L266.966 264.59V267.273L266.88 267.177Z" fill="white"/>
<path d="M281.212 269.904C281.208 269.951 281.188 269.995 281.155 270.028C281.122 270.058 281.079 270.075 281.033 270.075C280.988 270.075 280.945 270.058 280.912 270.028C280.882 269.994 280.865 269.95 280.866 269.904V264.488C280.865 264.465 280.869 264.442 280.878 264.421C280.887 264.4 280.899 264.381 280.916 264.365C280.932 264.348 280.951 264.335 280.972 264.327C280.993 264.318 281.016 264.314 281.039 264.315C281.086 264.315 281.132 264.333 281.165 264.367C281.199 264.4 281.217 264.446 281.217 264.493L281.212 269.904Z" fill="white"/>
<path d="M295.905 264.792C295.924 264.805 295.94 264.821 295.953 264.84C295.965 264.859 295.974 264.881 295.978 264.903C295.982 264.949 295.971 264.994 295.946 265.032C295.934 265.05 295.919 265.064 295.901 265.075C295.883 265.085 295.863 265.091 295.842 265.093C295.8 265.096 295.759 265.086 295.723 265.064C295.491 264.904 295.238 264.776 294.971 264.685C294.692 264.591 294.399 264.544 294.104 264.546C293.767 264.543 293.433 264.609 293.122 264.739C292.821 264.866 292.549 265.052 292.321 265.286C292.09 265.529 291.908 265.814 291.785 266.127C291.522 266.818 291.522 267.582 291.785 268.273C291.908 268.586 292.09 268.871 292.321 269.114C292.549 269.348 292.821 269.534 293.122 269.661C293.433 269.791 293.767 269.857 294.104 269.855C294.397 269.857 294.689 269.81 294.968 269.715C295.231 269.623 295.483 269.498 295.715 269.343C295.751 269.317 295.795 269.306 295.839 269.311C295.86 269.313 295.881 269.321 295.899 269.332C295.918 269.344 295.934 269.359 295.946 269.377C295.971 269.413 295.983 269.457 295.978 269.5C295.975 269.522 295.968 269.543 295.956 269.561C295.945 269.58 295.93 269.596 295.912 269.608C295.756 269.715 295.59 269.806 295.416 269.88C295.21 269.969 294.997 270.039 294.778 270.089C294.557 270.141 294.331 270.167 294.104 270.168C293.723 270.17 293.346 270.094 292.995 269.946C292.654 269.8 292.344 269.589 292.083 269.323C291.818 269.053 291.607 268.734 291.462 268.384C291.162 267.625 291.162 266.78 291.462 266.021C291.607 265.671 291.818 265.352 292.083 265.082C292.344 264.817 292.654 264.605 292.995 264.46C293.346 264.31 293.723 264.235 294.104 264.238C294.431 264.237 294.757 264.287 295.069 264.386C295.367 264.478 295.649 264.615 295.905 264.792Z" fill="white"/>
<path d="M307.745 264.735L305.665 269.972C305.655 270.004 305.635 270.031 305.608 270.051C305.576 270.073 305.538 270.083 305.499 270.081C305.461 270.078 305.424 270.064 305.394 270.039C305.368 270.012 305.35 269.977 305.344 269.94C305.34 269.912 305.343 269.883 305.353 269.856L307.563 264.406C307.573 264.37 307.595 264.34 307.625 264.318C307.655 264.304 307.687 264.297 307.72 264.299C307.758 264.296 307.795 264.306 307.827 264.327C307.854 264.346 307.874 264.374 307.884 264.406L310.094 269.856C310.098 269.878 310.098 269.9 310.094 269.922C310.095 269.944 310.091 269.966 310.082 269.986C310.074 270.006 310.06 270.024 310.044 270.039C310.009 270.067 309.965 270.082 309.92 270.08C309.885 270.08 309.849 270.07 309.819 270.051C309.79 270.032 309.768 270.005 309.756 269.972L307.614 264.669L307.745 264.735ZM306.217 268.295L306.333 267.965H308.994L309.076 268.295H306.217Z" fill="white"/>
<path d="M116.408 247.377H88.5245C95.421 262.372 110.547 272.777 128.101 272.777C134.536 272.786 140.892 271.36 146.709 268.604C133.489 267.098 122.27 258.879 116.408 247.377Z" fill="#B2D236"/>
<path d="M112.043 229.121C112.043 208.688 127.214 191.867 146.709 189.646C140.889 186.888 134.53 185.464 128.093 185.476C104.045 185.476 84.5442 205.02 84.5442 229.121C84.5398 234.44 85.5077 239.714 87.3999 244.683H115.164C113.099 239.756 112.038 234.465 112.043 229.121Z" fill="#FDBE16"/>
<path d="M169.547 219.734C169.547 224.002 168.285 228.174 165.919 231.723C163.554 235.271 160.191 238.037 156.257 239.671C152.323 241.304 147.994 241.731 143.817 240.899C139.641 240.066 135.804 238.011 132.793 234.994C129.782 231.976 127.731 228.131 126.901 223.945C126.07 219.759 126.496 215.421 128.126 211.478C129.756 207.535 132.516 204.165 136.057 201.794C139.598 199.423 143.76 198.158 148.019 198.159C153.728 198.159 159.204 200.432 163.241 204.478C167.278 208.525 169.547 214.012 169.547 219.734Z" fill="#FDBE16"/>
<path d="M167.813 247.066L167.77 247.052C165.431 246.234 162.884 246.234 160.545 247.052C157.515 248.104 154.219 248.104 151.189 247.052C148.85 246.234 146.304 246.234 143.966 247.052C140.935 248.104 137.64 248.104 134.61 247.052C133.457 246.615 132.231 246.407 130.999 246.438C129.764 246.406 128.535 246.615 127.38 247.052C125.883 247.605 124.296 247.873 122.702 247.841C121.7 247.854 120.701 247.755 119.721 247.546C125.293 257.394 135.22 264.417 147.029 265.762L151.048 266.22C158.406 261.64 164.24 254.974 167.813 247.066Z" fill="#08B6A2"/>
<path d="M191.265 226.047C188.735 226.08 186.538 225.688 184.674 224.871C182.809 224.055 181.028 222.811 179.33 221.142C179.165 220.978 179.022 220.793 178.905 220.591C178.783 220.378 178.722 220.137 178.727 219.892C178.729 219.686 178.772 219.482 178.854 219.293C178.935 219.104 179.053 218.933 179.201 218.79C179.335 218.636 179.499 218.511 179.684 218.425C179.868 218.339 180.069 218.292 180.272 218.289C180.48 218.293 180.684 218.34 180.873 218.426C181.062 218.512 181.232 218.636 181.372 218.79C182.611 220.149 184.115 221.239 185.791 221.993C187.466 222.732 189.279 223.107 191.11 223.093C192.568 223.119 194.018 222.864 195.381 222.342C196.545 221.905 197.571 221.164 198.352 220.196C199.081 219.271 199.469 218.122 199.45 216.944C199.415 215.408 198.991 214.173 198.177 213.239C197.266 212.23 196.154 211.425 194.911 210.876C193.443 210.205 191.923 209.652 190.367 209.224C189.001 208.791 187.692 208.314 186.441 207.793C185.259 207.314 184.15 206.673 183.144 205.889C182.203 205.149 181.444 204.203 180.924 203.124C180.392 202.022 180.126 200.704 180.126 199.169C180.1 197.487 180.588 195.837 181.523 194.44C182.455 193.055 183.778 191.971 185.493 191.186C187.207 190.401 189.197 190.01 191.461 190.011C193.395 190.005 195.314 190.344 197.13 191.011C198.944 191.679 200.385 192.663 201.451 193.964C201.949 194.498 202.199 194.982 202.199 195.415C202.192 195.611 202.144 195.804 202.058 195.981C201.973 196.158 201.851 196.315 201.701 196.441C201.559 196.59 201.389 196.709 201.201 196.792C201.013 196.875 200.81 196.92 200.605 196.924C200.446 196.926 200.289 196.896 200.143 196.834C199.997 196.773 199.865 196.682 199.755 196.567C199.148 195.828 198.424 195.195 197.613 194.69C196.723 194.128 195.755 193.698 194.742 193.413C193.677 193.111 192.576 192.96 191.47 192.964C190.032 192.939 188.601 193.182 187.251 193.68C186.1 194.093 185.082 194.81 184.304 195.756C183.59 196.658 183.233 197.759 183.233 199.06C183.233 200.46 183.633 201.603 184.433 202.489C185.318 203.434 186.389 204.184 187.579 204.691C188.876 205.274 190.258 205.817 191.724 206.319C193.12 206.706 194.495 207.165 195.845 207.694C197.089 208.176 198.262 208.826 199.332 209.624C200.346 210.391 201.166 211.386 201.727 212.527C202.312 213.696 202.603 215.165 202.602 216.933C202.618 218.583 202.11 220.195 201.153 221.537C200.135 222.95 198.767 224.071 197.183 224.789C195.506 225.594 193.533 226.013 191.265 226.047Z" fill="white"/>
<path d="M230.52 190.306C230.724 190.303 230.927 190.346 231.113 190.433C231.298 190.52 231.461 190.648 231.591 190.807C231.848 191.079 231.999 191.434 232.015 191.809C232.015 191.978 231.99 192.147 231.94 192.309C231.892 192.472 231.816 192.624 231.715 192.76L219.979 208.925L220.578 206.973V224.042C220.579 224.238 220.539 224.433 220.462 224.614C220.384 224.795 220.271 224.958 220.129 225.093C219.835 225.381 219.441 225.542 219.03 225.542C218.619 225.542 218.225 225.381 217.931 225.093C217.789 224.958 217.676 224.795 217.598 224.614C217.521 224.433 217.481 224.238 217.482 224.042V207.328L217.781 208.53L206.348 192.862C206.22 192.705 206.118 192.528 206.048 192.338C205.984 192.17 205.95 191.992 205.948 191.812C205.946 191.605 205.993 191.4 206.084 191.213C206.175 191.027 206.308 190.864 206.473 190.739C206.769 190.476 207.148 190.326 207.544 190.313C207.794 190.315 208.04 190.38 208.258 190.503C208.477 190.626 208.661 190.801 208.793 191.014L219.532 205.682L218.783 205.582L229.22 191.061C229.352 190.832 229.541 190.642 229.769 190.509C229.997 190.377 230.256 190.307 230.52 190.306Z" fill="white"/>
<path d="M256.889 222.592C257.296 222.583 257.691 222.737 257.986 223.018C258.13 223.148 258.244 223.306 258.321 223.483C258.399 223.66 258.438 223.852 258.436 224.045C258.441 224.245 258.403 224.445 258.326 224.63C258.248 224.815 258.133 224.981 257.986 225.118C257.691 225.399 257.296 225.552 256.889 225.542H239.108C238.908 225.547 238.709 225.51 238.525 225.433C238.34 225.355 238.174 225.24 238.038 225.093C237.762 224.813 237.609 224.435 237.611 224.041V192.012C237.611 191.816 237.651 191.621 237.728 191.44C237.805 191.259 237.918 191.096 238.061 190.961C238.212 190.811 238.391 190.694 238.589 190.616C238.787 190.539 238.998 190.502 239.21 190.51C239.612 190.512 239.997 190.675 240.281 190.961C240.43 191.092 240.549 191.254 240.631 191.435C240.713 191.617 240.755 191.813 240.756 192.012V223.444L239.806 222.592H256.889Z" fill="white"/>
<path d="M178.985 232.617C178.791 232.619 178.603 232.545 178.462 232.411C178.392 232.347 178.336 232.269 178.298 232.182C178.259 232.095 178.239 232.001 178.239 231.906C178.239 231.811 178.259 231.717 178.298 231.63C178.336 231.543 178.392 231.465 178.462 231.401C178.604 231.267 178.791 231.193 178.985 231.195H197.138C197.333 231.194 197.52 231.267 197.661 231.401C197.733 231.464 197.79 231.542 197.829 231.629C197.867 231.716 197.886 231.811 197.885 231.907C197.89 232.005 197.873 232.104 197.834 232.195C197.795 232.286 197.736 232.367 197.661 232.431C197.514 232.551 197.329 232.615 197.138 232.61L178.985 232.617ZM188.063 257.398C187.963 257.4 187.864 257.382 187.771 257.343C187.679 257.305 187.596 257.247 187.527 257.174C187.394 257.033 187.32 256.845 187.322 256.65V232.093H188.816V256.65C188.811 256.847 188.731 257.034 188.592 257.173C188.453 257.313 188.266 257.393 188.07 257.398H188.063Z" fill="white"/>
<path d="M203.712 257.398C203.61 257.405 203.509 257.39 203.413 257.356C203.317 257.321 203.23 257.267 203.156 257.197C203.082 257.126 203.024 257.041 202.985 256.947C202.946 256.853 202.926 256.752 202.928 256.65V231.944C202.933 231.747 203.013 231.559 203.152 231.42C203.291 231.28 203.478 231.2 203.674 231.195H213.536C214.877 231.165 216.205 231.467 217.401 232.075C218.484 232.626 219.389 233.473 220.013 234.517C220.638 235.561 220.955 236.761 220.93 237.977C220.946 239.045 220.736 240.104 220.314 241.084C219.928 241.975 219.339 242.764 218.595 243.387C217.859 243.997 217.004 244.447 216.084 244.708L214.365 244.41C215.363 244.41 216.342 244.674 217.205 245.175C218.127 245.713 218.887 246.489 219.408 247.422C219.98 248.407 220.267 249.611 220.268 251.033C220.248 251.966 220.304 252.899 220.436 253.822C220.499 254.314 220.651 254.79 220.884 255.228C221.051 255.508 221.274 255.751 221.537 255.943C221.68 256.036 221.796 256.165 221.872 256.317C221.942 256.466 221.96 256.633 221.923 256.793C221.886 256.952 221.796 257.095 221.669 257.197C221.565 257.281 221.442 257.338 221.312 257.366C221.17 257.388 221.025 257.361 220.9 257.29C220.508 257.055 220.161 256.752 219.873 256.396C219.538 255.997 219.258 255.385 219.033 254.563C218.808 253.74 218.694 252.563 218.69 251.033C218.69 249.861 218.512 248.926 218.155 248.227C217.84 247.58 217.364 247.026 216.773 246.617C216.231 246.251 215.621 245.997 214.979 245.869C214.408 245.751 213.826 245.688 213.243 245.682H204.16L204.496 245.233V256.65C204.496 256.748 204.477 256.845 204.438 256.935C204.4 257.025 204.343 257.107 204.272 257.174C204.199 257.247 204.111 257.305 204.015 257.343C203.919 257.382 203.816 257.4 203.712 257.398ZM204.122 244.184H213.721C214.697 244.092 215.64 243.787 216.486 243.29C217.343 242.779 218.056 242.058 218.558 241.194C219.111 240.227 219.389 239.126 219.361 238.011C219.378 237.299 219.242 236.59 218.962 235.935C218.681 235.279 218.264 234.692 217.737 234.212C216.654 233.202 215.191 232.697 213.348 232.695H204.305L204.483 232.434V244.598L204.122 244.184Z" fill="white"/>
<path d="M236.206 233.103L226.757 256.911C226.712 257.056 226.62 257.182 226.495 257.269C226.375 257.355 226.232 257.401 226.084 257.4C225.984 257.408 225.883 257.397 225.786 257.366C225.69 257.336 225.601 257.286 225.524 257.221C225.402 257.099 225.323 256.941 225.299 256.77C225.276 256.644 225.29 256.514 225.338 256.396L235.385 231.615C235.43 231.456 235.529 231.317 235.665 231.223C235.798 231.156 235.946 231.123 236.095 231.129C236.267 231.121 236.437 231.167 236.581 231.261C236.705 231.348 236.796 231.474 236.841 231.619L246.89 256.4C246.916 256.498 246.928 256.599 246.926 256.7C246.931 256.799 246.914 256.897 246.875 256.988C246.836 257.079 246.777 257.16 246.703 257.224C246.556 257.335 246.38 257.399 246.197 257.409C246.014 257.419 245.832 257.374 245.674 257.28C245.542 257.198 245.443 257.071 245.396 256.922L235.646 232.805L236.206 233.103ZM229.292 249.275L229.827 247.778H241.928L242.303 249.275H229.292Z" fill="white"/>
<path d="M270.832 231.194C270.932 231.186 271.034 231.197 271.13 231.228C271.226 231.258 271.315 231.308 271.392 231.373C271.453 231.438 271.5 231.515 271.531 231.598C271.561 231.682 271.575 231.771 271.571 231.86C271.565 231.988 271.54 232.114 271.496 232.234L261.269 256.911C261.202 257.054 261.099 257.177 260.971 257.269C260.851 257.355 260.707 257.4 260.56 257.399C260.407 257.399 260.258 257.353 260.13 257.269C259.997 257.187 259.898 257.06 259.85 256.911L249.691 232.355C249.661 232.295 249.636 232.232 249.616 232.168C249.589 232.083 249.577 231.995 249.578 231.906C249.577 231.811 249.596 231.716 249.635 231.628C249.674 231.541 249.731 231.463 249.803 231.4C249.933 231.272 250.106 231.198 250.289 231.194C250.662 231.194 250.936 231.394 251.11 231.794L260.821 255.226L260.373 255.187L270.121 231.679C270.181 231.538 270.279 231.418 270.405 231.332C270.531 231.246 270.679 231.198 270.832 231.194Z" fill="white"/>
<path d="M291.45 231.195C291.646 231.201 291.833 231.282 291.971 231.421C292.11 231.56 292.19 231.748 292.196 231.944C292.199 232.045 292.18 232.145 292.141 232.237C292.103 232.33 292.044 232.413 291.971 232.481C291.83 232.615 291.643 232.689 291.45 232.687H277.815L278.188 232.05V243.655L277.74 243.131H289.768C289.965 243.135 290.152 243.215 290.291 243.355C290.43 243.494 290.51 243.682 290.514 243.879C290.517 243.979 290.498 244.078 290.46 244.171C290.421 244.263 290.364 244.347 290.291 244.415C290.15 244.549 289.963 244.623 289.768 244.621H277.81L278.183 244.21V256.076L278.035 255.888H291.444C291.641 255.894 291.827 255.975 291.966 256.114C292.105 256.254 292.185 256.441 292.19 256.638C292.194 256.738 292.175 256.838 292.136 256.931C292.098 257.023 292.039 257.106 291.965 257.174C291.825 257.308 291.638 257.382 291.444 257.38H277.362C277.165 257.376 276.978 257.295 276.839 257.156C276.7 257.017 276.619 256.829 276.614 256.632V231.944C276.62 231.747 276.7 231.56 276.839 231.42C276.978 231.281 277.165 231.2 277.362 231.195H291.45Z" fill="white"/>
<path d="M312.252 255.9C312.449 255.905 312.636 255.985 312.776 256.125C312.915 256.265 312.995 256.453 313 256.65C313.003 256.75 312.984 256.85 312.946 256.942C312.908 257.035 312.85 257.118 312.777 257.186C312.635 257.321 312.447 257.394 312.252 257.392H298.543C298.443 257.395 298.343 257.377 298.251 257.338C298.159 257.3 298.075 257.242 298.007 257.169C297.873 257.027 297.8 256.839 297.802 256.645V231.944C297.801 231.846 297.821 231.749 297.859 231.659C297.898 231.569 297.954 231.487 298.025 231.42C298.176 231.275 298.377 231.194 298.586 231.194C298.794 231.194 298.995 231.275 299.146 231.42C299.217 231.487 299.274 231.568 299.313 231.658C299.351 231.749 299.371 231.846 299.371 231.944V256.575L298.698 255.9H312.252Z" fill="white"/>
</svg>
