<?xml version="1.0" encoding="UTF-8"?>
<svg id="Layer_1" data-name="Layer 1" xmlns="http://www.w3.org/2000/svg" viewBox="0 0 128 128">
  <defs>
    <style>
      .cls-1 {
        fill: #ef2868;
      }

      .cls-2 {
        fill: #222;
      }
    </style>
  </defs>
  <path class="cls-2" d="M96.52,91.18H31.41c-14.97,0-27.15-12.18-27.15-27.15v-.07c0-14.97,12.18-27.15,27.15-27.15h65.19c14.97,0,27.15,12.18,27.15,27.15s-12.21,27.22-27.22,27.22ZM31.41,46.99c-9.36,0-16.97,7.61-16.97,16.97v.07c0,9.36,7.61,16.97,16.97,16.97h65.11c9.4,0,17.04-7.65,17.04-17.04s-7.61-16.97-16.97-16.97H31.41Z"/>
  <path class="cls-1" d="M52,75.18l-20.75-7.53v-7.24l20.75-7.53v6.92l-18.15,6.23v-3.99l18.15,6.23v6.92Z"/>
  <path class="cls-1" d="M54.32,75.18l13.43-22.3h8.14l-13.43,22.3h-8.14Z"/>
  <path class="cls-1" d="M78.2,75.18v-6.92l18.15-6.23v3.99l-18.15-6.23v-6.92l20.75,7.53v7.24l-20.75,7.53Z"/>
</svg>